<?xml version="1.0" encoding="UTF-8"?>
<svg width="12px" height="12px" viewBox="0 0 12 12" version="1.1" xmlns="http://www.w3.org/2000/svg" xmlns:xlink="http://www.w3.org/1999/xlink">
    <title>1E3E6C9D-397D-4053-832D-67F79E90CA7C</title>
    <g id="Website" stroke="none" stroke-width="1" fill="none" fill-rule="evenodd">
        <g id="Product-listing-Mob" transform="translate(-50.000000, -994.000000)" fill="#000000" fill-rule="nonzero">
            <g id="Group-15" transform="translate(0.000000, 976.000000)">
                <g id="Group-14" transform="translate(48.000000, 15.000000)">
                    <g id="Group" transform="translate(0.000000, 1.000000)">
                        <g id="filter_major_monotone" transform="translate(2.400000, 2.400000)">
                            <path d="M0.56,2.24 L2.3436,2.24 C2.57929499,2.90917042 3.21053846,3.35765601 3.92,3.36 C4.62946154,3.35765601 5.26070501,2.90917042 5.4964,2.24 L10.64,2.24 C10.9492795,2.24 11.2,1.98927946 11.2,1.68 C11.2,1.37072054 10.9492795,1.12 10.64,1.12 L5.4964,1.12 C5.26070501,0.450829584 4.62946154,0.00234399221 3.92,0 C3.21053846,0.00234399221 2.57929499,0.450829584 2.3436,1.12 L0.56,1.12 C0.25072054,1.12 8.8817842e-16,1.37072054 8.8817842e-16,1.68 C8.8817842e-16,1.98927946 0.25072054,2.24 0.56,2.24 M10.64,8.96 L5.4964,8.96 C5.26070501,8.29082958 4.62946154,7.84234399 3.92,7.84 C3.21053846,7.84234399 2.57929499,8.29082958 2.3436,8.96 L0.56,8.96 C0.25072054,8.96 0,9.21072054 0,9.52 C0,9.82927946 0.25072054,10.08 0.56,10.08 L2.3436,10.08 C2.57929499,10.7491704 3.21053846,11.197656 3.92,11.2 C4.62946154,11.197656 5.26070501,10.7491704 5.4964,10.08 L10.64,10.08 C10.9492795,10.08 11.2,9.82927946 11.2,9.52 C11.2,9.21072054 10.9492795,8.96 10.64,8.96 M10.64,5.04 L8.8564,5.04 C8.62070501,4.37082958 7.98946154,3.92234399 7.28,3.92 C6.57053846,3.92234399 5.93929499,4.37082958 5.7036,5.04 L0.56,5.04 C0.25072054,5.04 8.8817842e-16,5.29072054 8.8817842e-16,5.6 C8.8817842e-16,5.90927946 0.25072054,6.16 0.56,6.16 L5.7036,6.16 C5.93929499,6.82917042 6.57053846,7.27765601 7.28,7.28 C7.98946154,7.27765601 8.62070501,6.82917042 8.8564,6.16 L10.64,6.16 C10.9492795,6.16 11.2,5.90927946 11.2,5.6 C11.2,5.29072054 10.9492795,5.04 10.64,5.04 M3.92,1.12 C4.22927946,1.12 4.48,1.37072054 4.48,1.68 C4.48,1.98927946 4.22927946,2.24 3.92,2.24 C3.61072054,2.24 3.36,1.98927946 3.36,1.68 C3.36,1.37072054 3.61072054,1.12 3.92,1.12 M3.92,10.08 C3.61072054,10.08 3.36,9.82927946 3.36,9.52 C3.36,9.21072054 3.61072054,8.96 3.92,8.96 C4.22927946,8.96 4.48,9.21072054 4.48,9.52 C4.48,9.82927946 4.22927946,10.08 3.92,10.08 M7.28,6.16 C6.97072054,6.16 6.72,5.90927946 6.72,5.6 C6.72,5.29072054 6.97072054,5.04 7.28,5.04 C7.58927946,5.04 7.84,5.29072054 7.84,5.6 C7.84,5.90927946 7.58927946,6.16 7.28,6.16" id="Shape"></path>
                        </g>
                    </g>
                </g>
            </g>
        </g>
    </g>
</svg>