<?xml version="1.0" encoding="UTF-8"?>
<svg width="20px" height="18px" viewBox="0 0 20 18" version="1.1" xmlns="http://www.w3.org/2000/svg" xmlns:xlink="http://www.w3.org/1999/xlink">
    <title>67666AD4-18D3-4AD9-ACA9-E079FCAA2D5F</title>
    <g id="Website" stroke="none" stroke-width="1" fill="none" fill-rule="evenodd">
        <g id="Profile-1-mobile" transform="translate(-297.000000, -93.000000)" fill="#000000" fill-rule="nonzero">
            <g id="Top-action-bar" transform="translate(0.000000, 72.000000)">
                <g id="Group-16" transform="translate(295.000000, 18.000000)">
                    <g id="heart" transform="translate(2.400000, 3.600000)">
                        <path d="M13.5090939,0.00524708684 C12.1508943,0.0645923759 10.8606627,0.625269398 9.89547195,1.58176853 L9.59977578,1.87401133 L9.30394051,1.5816307 C7.17553538,-0.526618005 3.72470892,-0.52661798 1.59630383,1.58163075 C-0.532101255,3.68987948 -0.532101281,7.10802602 1.59630377,9.21627478 L9.00699836,16.5567888 C9.33438029,16.8810704 9.86517127,16.8810704 10.1925532,16.5567888 L17.6032478,9.21627479 C18.6255552,8.2041241 19.2,6.83088098 19.2,5.39895274 C19.2,3.96702451 18.6255552,2.59378139 17.6031086,1.5814929 C16.5814202,0.569004743 15.1950479,0 13.7494294,0 L13.5090939,0.00524708684 Z M13.7494294,1.66074978 C14.7502422,1.66074978 15.7100384,2.05467614 16.4175538,2.7558203 C17.1256797,3.45691103 17.5233723,4.40761781 17.5233723,5.39895274 L17.5180956,5.59661602 C17.4689681,6.51593795 17.0784898,7.38771546 16.4178321,8.04180956 L9.59977578,14.7946446 L2.78185862,8.04194735 C1.30821742,6.58226174 1.30821744,4.21564378 2.78185867,2.75595818 C4.25549991,1.29627258 6.64474442,1.29627256 8.11838567,2.75595814 L9.00699836,3.63615552 C9.33438029,3.96043708 9.86517127,3.96043708 10.1925532,3.63615552 L11.0811659,2.75595813 C11.7888204,2.05467614 12.7486166,1.66074978 13.7494294,1.66074978 Z" id="Path"></path>
                    </g>
                </g>
            </g>
        </g>
    </g>
</svg>