<?xml version="1.0" encoding="UTF-8"?>
<svg width="112px" height="79px" viewBox="0 0 112 79" version="1.1" xmlns="http://www.w3.org/2000/svg" xmlns:xlink="http://www.w3.org/1999/xlink">
    <title>Alteration</title>
    <g id="Dump" stroke="none" stroke-width="1" fill="none" fill-rule="evenodd">
        <g id="Group-7" transform="translate(-1268.000000, -1752.000000)" fill-rule="nonzero">
            <g id="Group-27" transform="translate(439.000000, 1518.000000)">
                <g id="Group-24" transform="translate(794.000000, 164.000000)">
                    <g id="Alteration" transform="translate(35.000000, 70.000000)">
                        <rect id="Rectangle" fill="#3F3D56" x="79" y="67.8867772" width="19" height="1"></rect>
                        <polygon id="Rectangle" fill="#CFCCE0" transform="translate(25.930991, 29.771868) rotate(26.345890) translate(-25.930991, -29.771868) " points="6.78848287 13.9604271 45.2402285 13.7605615 45.0734984 45.5833082 6.62175281 45.7831739"></polygon>
                        <polygon id="Rectangle" fill="#ED695F" transform="translate(24.409251, 24.965784) rotate(26.345890) translate(-24.409251, -24.965784) " points="5.26674338 9.15434377 43.718489 8.95447808 43.5517589 40.7772249 5.10001332 40.9770906"></polygon>
                        <polygon id="Path" fill="#CFCCE0" points="34 26.2785635 33.9168228 26.1364598 24.358432 31.5290422 24.358432 26.0487788 33.143994 21.3813283 33.0646163 21.237209 24.358432 25.8625323 24.358432 20.5256828 29.3633353 15.9567978 29.2497625 15.8367655 24.358432 20.3018443 24.358432 14 24.1914615 14 24.1914615 20.3086976 18.8537468 15.6961736 18.7434601 15.8192293 24.1914615 20.5270938 24.1914615 25.8615245 15.0022335 20.9074478 14.9218289 21.0509625 24.1914615 26.0484765 24.1914615 31.5271274 14.0696224 26.9698324 14 27.11889 24.1914615 31.7074277 24.1914615 38 24.358432 38 24.358432 31.7181107"></polygon>
                        <path d="M26.5906551,37.5687761 L26.588923,37.5687761 L26.5828688,37.5486064 L26.4919948,37.2328829 C26.5620947,37.2196963 26.6321936,37.2041814 26.7005657,37.1878888 C25.655995,36.9062984 24.6226758,36.9799941 23.7719594,37.156086 L23.7702327,37.156086 C23.5538755,37.2003034 23.3504975,37.252273 23.1609686,37.3065786 C23.2708792,37.3236423 23.3807899,37.339934 23.4924284,37.3531206 L23.439913,37.5486064 L23.4327144,37.5486064 L23,39 L24.3336211,38.9953462 L27,38.9852609 L26.5906551,37.5687761 Z" id="Path" fill="#3F3D56"></path>
                        <path d="M45,40 L6,40 L6,8 L45,8 L45,40 Z M6.20394656,39.799401 L44.7960534,39.799401 L44.7960534,8.20059901 L6.20394656,8.20059901 L6.20394656,39.799401 Z" id="Shape" fill="#3F3D56"></path>
                        <path d="M47,8.99998304 C47,9.04926594 46.9985704,9.09783366 46.9942844,9.1456862 C46.9350984,9.95726092 46.3899949,10.6520328 45.6157823,10.9026816 C44.8415698,11.1533305 43.992676,10.9098609 43.469031,10.2869758 C42.945386,9.66409082 42.8514382,8.78603381 43.2314482,8.06647405 C43.2744481,7.9840637 43.3236364,7.90503288 43.3785899,7.83006148 C43.8684713,7.15065107 44.7299863,6.84865219 45.5368837,7.07348462 C46.343781,7.29831706 46.9249553,8.00230431 46.9928592,8.83713503 C46.9978552,8.89070194 47,8.94498579 47,8.99998304 Z" id="Path" fill="#CFCCE0"></path>
                        <path d="M48,6.99998072 C48,7.04926367 47.9985696,7.09783145 47.9942888,7.14568405 C47.9351027,7.95725971 47.3899986,8.65203238 46.6157852,8.90268153 C45.8415718,9.15333069 44.9926771,8.90986076 44.4690315,8.28697501 C43.9453859,7.66408926 43.8514381,6.78603124 44.2314485,6.06647064 C44.2744479,5.98405989 44.3236363,5.90502895 44.3785903,5.8300578 C44.8684725,5.15065007 45.7299857,4.84865284 46.5368814,5.07348439 C47.3437772,5.29831595 47.9249515,6.00230024 47.9928584,6.83712901 C47.9978543,6.89070037 48,6.94498252 48,6.99998072 Z" id="Path" fill="#ED695F"></path>
                        <path d="M48,7.59524013 C48,7.73214682 47.9980927,7.86706678 47.992385,8 L44,7 L47.9904836,7.14285226 C47.9971391,7.29166229 48,7.44245662 48,7.59524013 Z" id="Path" fill="#3F3D56"></path>
                        <path d="M48,8 L44.2836567,9 C44.1781678,8.7372242 44.0832483,8.45418596 44,8.15417015 L48,8 Z" id="Path" fill="#3F3D56"></path>
                        <path d="M47,5.84453221 L44,6.15546779 C44.0568634,6.06155043 44.1219113,5.97148477 44.1945839,5.88604575 L47,5.84453221 Z" id="Path" fill="#3F3D56"></path>
                        <circle id="Oval" fill="#3F3D56" cx="38.5" cy="39.5" r="1.5"></circle>
                        <circle id="Oval" fill="#3F3D56" cx="25.5" cy="7.5" r="1.5"></circle>
                        <circle id="Oval" fill="#FFCD65" cx="6.5" cy="17.5" r="1.5"></circle>
                        <rect id="Rectangle" fill="#CFCCE0" x="88" y="65" width="4" height="4"></rect>
                        <path d="M92,68 L87,68 L87,63 L92,63 L92,68 Z M87.2499998,67.7500008 L91.7499998,67.7500008 L91.7499998,63.2500008 L87.2499998,63.2500008 L87.2499998,67.7500008 Z" id="Shape" fill="#3F3D56"></path>
                        <path d="M73.8880871,3.44021119 C71.9586863,0.164993885 68.1415208,0.0123547862 68.1415208,0.0123547862 C68.1415208,0.0123547862 64.4219096,-0.465512886 62.0358029,4.5226841 C59.811761,9.17209389 56.742299,13.6611939 61.5416445,14.7495853 L62.408545,12.0388797 L62.9454127,14.951392 C63.6287473,15.0007683 64.3142595,15.0125386 64.9988745,14.9866502 C70.1385844,14.8199394 75.0333826,15.0354251 74.8757776,13.1825225 C74.6662687,10.7193542 75.7445583,6.59162621 73.8880871,3.44021119 Z" id="Path" fill="#2F2E41"></path>
                        <path d="M63.8581871,33.4450726 L62.3460507,32.000461 L59.2480164,28 L57,29.0607543 L60.649509,33.7784444 L62.230879,35.8781007 L62.235408,35.8897985 C62.235408,35.8897985 64.8171037,39.0012688 66.5874059,37.6677818 C68.357708,36.3342948 63.8581871,33.4450726 63.8581871,33.4450726 Z" id="Path" fill="#FFB9B9"></path>
                        <path d="M76.0315883,29.4447229 L74.6029094,28 L73,29.7781193 L74.4940923,31.8779383 L74.4983713,31.889636 C74.4983713,31.889636 76.9375802,35.001346 78.6101773,33.6677563 C80.2827745,32.3341665 76.0315883,29.4447229 76.0315883,29.4447229 Z" id="Path" fill="#FFB9B9"></path>
                        <polygon id="Path" fill="#CFCCE0" points="73.4285575 25 76 27.8696143 74.3571882 29 72 25.5217804"></polygon>
                        <path d="M74,14.1278296 C74,14.1278296 74.6558521,13.2470038 74.9369321,16.1096871 C75.218012,18.9723703 74.4684676,20 74.4684676,20 L74,14.1278296 Z" id="Path" fill="#CFCCE0"></path>
                        <circle id="Oval" fill="#FFB9B9" cx="68" cy="7" r="4"></circle>
                        <path d="M65.4470254,9 C65.4470254,9 64.933717,11.5397025 62.8804814,11.8384911 C60.8272458,12.1372797 57.6007322,13.1830392 58.040711,15.1998615 C58.4806897,17.2166837 70.8001052,16.992592 70.8001052,16.992592 L73,13.5565247 C73,13.5565247 68.4535501,12.3613704 68.8935289,9.67227407 L65.4470254,9 Z" id="Path" fill="#FFB9B9"></path>
                        <path d="M71.9906241,13.0289172 C71.9906241,13.0289172 68.9890402,15.2424727 61.9220061,15.0924025 C61.9220061,15.0924025 57.9284111,15.7278857 58.5194017,13.6843201 C58.5194017,13.6843201 58.0465386,12.9913994 57.5906016,15.1674391 C57.1346645,17.3434789 53.715133,24.7720253 54.0190914,25.0721687 L55.1589356,26.1977059 L57.6665909,31 L60.3262259,29.4992879 L59.4143508,27.548356 C59.4143508,27.548356 61.1621107,28.9740428 61.9979965,26.8730335 C61.9979965,26.8730335 62.6819026,28.899001 64.1257041,28.9740376 C65.5695056,29.0490743 74.9162218,26.4228137 74.9162218,26.4228137 C74.9162218,26.4228137 74.3842955,24.3218106 74.9162218,23.4213803 C75.4481482,22.52095 76.284034,20.7200903 75.9040863,19.3694453 L75.2201802,13.9668653 C75.2201802,13.9668653 72.3705718,12.8038104 71.9906241,13.0289172 Z" id="Path" fill="#CFCCE0"></path>
                        <path d="M63.9009054,28.6328094 L64.1531579,30.7464739 C64.1531579,30.7464739 61.846851,32.526401 62.2072113,38.9044742 L55,69.8307137 C55,69.8307137 56.3693696,71.6848042 59.9729694,71.5364774 C63.5765691,71.3881505 70.5675648,41.8710201 70.5675648,41.8710201 C70.5675648,41.8710201 68.6216182,70.7948412 71,71.5364774 C73.3783759,72.2781136 76.7657649,71.9072955 76.7657649,71.9072955 L79,33.1938738 C79,33.1938738 76.7657649,29.3373639 75.4684682,28.5957277 C74.1711714,27.8540915 73.6666654,26 73.6666654,26 L63.9009054,28.6328094 Z" id="Path" fill="#2F2E41"></path>
                        <path d="M54.9424864,69 L54.5784948,71.7805576 C54.5784948,71.7805576 51.2297883,79.2204287 54.2873029,78.9949777 C57.3448174,78.7695267 57.4176162,74.1853643 57.4176162,74.1853643 L58,70.2775538 L54.9424864,69 Z" id="Path" fill="#2F2E41"></path>
                        <path d="M74.0575159,69 L74.4215055,71.7805576 C74.4215055,71.7805576 77.7702113,79.2204287 74.7126975,78.9949777 C71.6551836,78.7695267 71.5823859,74.1853643 71.5823859,74.1853643 L71,70.2775538 L74.0575159,69 Z" id="Path" fill="#2F2E41"></path>
                        <polygon id="Path" fill="#2F2E41" points="72.8245544 3.12900049 69.1402969 1 64.0526733 1.8709448 63 7 65.6202779 6.88883418 66.3523094 5.00448602 66.3523094 6.85776027 67.5613861 6.80644455 68.2631683 3.80638985 68.7017326 7 73 6.90316757"></polygon>
                        <path d="M92.966482,38.0010386 C90.7573437,38.0465 89,39.5823159 89,39.5823159 C89,39.5823159 90.8243787,41.0444237 93.033518,40.9989614 C95.2426573,40.953499 97,39.4176841 97,39.4176841 C97,39.4176841 95.1756213,37.9555772 92.966482,38.0010386 Z" id="Path" fill="#ED695F"></path>
                        <path d="M104.149526,31.4629353 C102.216529,32.4455812 100,31.7792342 100,31.7792342 C100,31.7792342 100.917478,29.5197046 102.850474,28.5370629 C104.783469,27.5544213 107,28.220764 107,28.220764 C107,28.220764 106.082523,30.4802862 104.149526,31.4629353 Z" id="Path" fill="#ED695F"></path>
                        <path d="M104.142796,30.0188879 C101.933656,29.8275126 100,31.1534849 100,31.1534849 C100,31.1534849 101.648066,32.7897369 103.857205,32.9811121 C106.066344,33.1724874 108,31.8465151 108,31.8465151 C108,31.8465151 106.351935,30.2102631 104.142796,30.0188879 Z" id="Path" fill="#3F3D56"></path>
                        <path d="M95.9792143,29.8501721 C96.1797572,32.0593113 94.8631141,34 94.8631141,34 C94.8631141,34 93.2213286,32.3589661 93.0207857,30.1498269 C92.8202428,27.9406877 94.1368859,26 94.1368859,26 C94.1368859,26 95.7786724,27.6410329 95.9792143,29.8501721 Z" id="Path" fill="#3F3D56"></path>
                        <path d="M86.2364205,43.282196 C87.3071848,44.9390503 86.938791,47 86.938791,47 C86.938791,47 84.8343433,46.3746584 83.7635789,44.717804 C82.6928146,43.0609497 83.0612094,41 83.0612094,41 C83.0612094,41 85.1656561,41.6253416 86.2364205,43.282196 Z" id="Path" fill="#3F3D56"></path>
                        <path d="M88.7837514,64 L88.6188062,63.8870359 C89.2001969,63.03215 89.5176458,62.0214326 89.5308145,60.9833153 C89.5261973,59.4647558 88.7900686,58.0601931 88.0781428,56.7018701 C87.9460029,56.4497452 87.814299,56.1984079 87.6876014,55.9472683 C87.1557854,54.9231282 86.7319626,53.8450532 86.423154,52.7309027 C85.3188893,48.5728586 86.4060965,43.6671602 89.3313641,39.6080963 C91.651964,36.388087 95.1112862,33.572364 99.9068851,31 L100,31.1782604 C95.2317144,33.7359497 91.7945536,36.5323206 89.49213,39.727068 C86.6020475,43.7372328 85.5266496,48.5789177 86.6154114,52.6785081 C86.9206143,53.7790157 87.339386,54.8438833 87.8647938,55.8554818 C87.9910982,56.1056905 88.1223195,56.3560385 88.2539736,56.6072769 C88.9772241,57.9872675 89.7251133,59.414234 89.7298758,60.9827283 C89.7167206,62.06129 89.3873946,63.1115387 88.7837514,64 Z" id="Path" fill="#3F3D56"></path>
                        <circle id="Oval" fill="#FFCD65" cx="110" cy="30" r="2"></circle>
                    </g>
                </g>
            </g>
        </g>
    </g>
</svg>