<?xml version="1.0" encoding="UTF-8"?>
<svg width="42px" height="42px" viewBox="0 0 42 42" version="1.1" xmlns="http://www.w3.org/2000/svg" xmlns:xlink="http://www.w3.org/1999/xlink">
    <title>9613A137-02B8-4DC3-9528-DFB003C002C9</title>
    <g id="Symbols" stroke="none" stroke-width="1" fill="none" fill-rule="evenodd">
        <g id="Group-2" transform="translate(1.000000, 1.000000)">
            <circle id="Oval" stroke="#CECECE" fill="#FFFFFF" cx="20" cy="20" r="20"></circle>
            <g id="Group" transform="translate(8.000000, 8.000000)" fill="#212A39" fill-rule="nonzero">
                <g id="Combined-Shape-2" transform="translate(5.350000, 5.350000)">
                    <path d="M1.61289944,0.209704612 L1.70710678,0.292893219 L6.656,5.242 L11.6066017,0.292893219 C11.997126,-0.0976310729 12.630291,-0.0976310729 13.0208153,0.292893219 C13.3812992,0.65337718 13.4090288,1.22060824 13.1040039,1.61289944 L13.0208153,1.70710678 L8.071,6.656 L13.0208153,11.6066017 C13.4113396,11.997126 13.4113396,12.630291 13.0208153,13.0208153 C12.6603313,13.3812992 12.0931003,13.4090288 11.7008091,13.1040039 L11.6066017,13.0208153 L6.656,8.071 L1.70710678,13.0208153 C1.31658249,13.4113396 0.683417511,13.4113396 0.292893219,13.0208153 C-0.0675907428,12.6603313 -0.0953202783,12.0931003 0.209704612,11.7008091 L0.292893219,11.6066017 L5.242,6.656 L0.292893219,1.70710678 C-0.0976310729,1.31658249 -0.0976310729,0.683417511 0.292893219,0.292893219 C0.65337718,-0.0675907428 1.22060824,-0.0953202783 1.61289944,0.209704612 Z" id="Combined-Shape"></path>
                </g>
            </g>
        </g>
    </g>
</svg>