<?xml version="1.0" encoding="UTF-8"?>
<svg width="110px" height="120px" viewBox="0 0 110 120" version="1.1" xmlns="http://www.w3.org/2000/svg" xmlns:xlink="http://www.w3.org/1999/xlink">
    <title>How-does-it-work-mob</title>
    <defs>
        <linearGradient x1="50.025741%" y1="100.017862%" x2="50.025741%" y2="0.0390906797%" id="linearGradient-1">
            <stop stop-color="#808080" stop-opacity="0.25" offset="0%"></stop>
            <stop stop-color="#808080" stop-opacity="0.12" offset="54%"></stop>
            <stop stop-color="#808080" stop-opacity="0.1" offset="100%"></stop>
        </linearGradient>
    </defs>
    <g id="Website" stroke="none" stroke-width="1" fill="none" fill-rule="evenodd">
        <g id="Exchange-1-mob" transform="translate(-32.000000, -617.000000)" fill-rule="nonzero">
            <g id="Group-5" transform="translate(16.000000, 561.000000)">
                <g id="window_shopping" transform="translate(16.000000, 56.000000)">
                    <rect id="Rectangle" fill="#EDEDF4" x="6" y="15" width="104" height="67"></rect>
                    <ellipse id="Oval" fill="#3B477B" cx="24.5" cy="70" rx="8.5" ry="1"></ellipse>
                    <rect id="Rectangle" fill="#3B477B" x="24" y="19" width="2" height="51"></rect>
                    <circle id="Oval" fill="#3B477B" cx="25" cy="22" r="3"></circle>
                    <path d="M33,24 C33,24 31.5377049,27.2576271 30.4131148,34 L24,26.6762712 C24,26.6762712 25.7229508,25.9576271 27.552459,25.1508475 C29.274673,24.3913798 31.1276727,24 33,24 L33,24 Z" id="Path" fill="#ED695F"></path>
                    <path d="M33,24 C33,24 31.5377049,27.2576271 30.4131148,34 L24,26.6762712 C24,26.6762712 25.7229508,25.9576271 27.552459,25.1508475 C29.274673,24.3913798 31.1276727,24 33,24 L33,24 Z" id="Path" fill="#000000" opacity="0.08"></path>
                    <path d="M17.0015282,25 C17.0015282,25 18.8887975,30.8885782 18.9881274,33.2216662 L18.9881274,36 L30,36 L30,33.111569 C28.6552665,31.3104898 27.1372752,29.6625699 25.4705537,28.1944363 C23.0790614,26.1270259 20.0865586,24.9990578 17,25.0016191 L17.0015282,25 Z" id="Path" fill="#ED695F"></path>
                    <path d="M19.0342641,33.8354554 C19.0342641,33.8354554 16.2231388,37.1864943 16.0153006,41.146813 C15.8074624,45.1071317 17.7857179,56.9317294 17.7857179,56.9317294 C17.7857179,56.9317294 24.4486766,59.3353382 31.1116353,56.9317294 C31.1116353,56.9317294 33.1945684,44.8055382 32.9852131,40.9381347 C32.7758579,37.0707311 28.7692837,32 28.7692837,32 L19.0342641,33.8354554 Z" id="Path" fill="#ED695F"></path>
                    <path d="M26,31.0149967 C26,31.0149967 27.3161195,30.880678 28.1261527,31.4160059 C28.9361859,31.9513338 30,32 30,32" id="Path" fill="#000000" opacity="0.08"></path>
                    <path d="M26,32.0149967 C26,32.0149967 27.3161195,31.880678 28.1261527,32.4160059 C28.9361859,32.9513338 30,33 30,33" id="Path" fill="#000000" opacity="0.08"></path>
                    <path d="M26,34.0149967 C26,34.0149967 27.3161195,33.880678 28.1261527,34.4160059 C28.9361859,34.9513338 30,35 30,35" id="Path" fill="#000000" opacity="0.08"></path>
                    <path d="M19,35 C19,35 17.9329446,37.3332254 18.0670554,37.6667746 C18.2011662,38.0003238 17,40 17,40" id="Path" fill="#000000" opacity="0.08"></path>
                    <path d="M20,36 C20,36 18.9329446,38.3332254 19.0670554,38.6667746 C19.2011662,39.0003238 18,41 18,41" id="Path" fill="#000000" opacity="0.08"></path>
                    <path d="M29,35 C29,35 30.0670554,37.3332254 29.9329446,37.6667746 C29.7988338,38.0003238 31,40 31,40" id="Path" fill="#000000" opacity="0.08"></path>
                    <path d="M29,36 C29,36 30.0670554,38.3332254 29.9329446,38.6667746 C29.7988338,39.0003238 31,41 31,41" id="Path" fill="#000000" opacity="0.08"></path>
                    <ellipse id="Oval" fill="#3B477B" cx="58.5" cy="77" rx="8.5" ry="1"></ellipse>
                    <rect id="Rectangle" fill="#3B477B" x="57" y="26" width="2" height="51"></rect>
                    <circle id="Oval" fill="#3B477B" cx="58" cy="28" r="3"></circle>
                    <path d="M52.672931,43.4288185 L40,61.3458351 L43.5146552,62.758879 C43.5146552,62.758879 42.8753448,63.4108096 43.302069,63.736775 C43.302069,63.736775 44.7932759,65.1482365 48.7331034,65.3650193 C48.7331034,65.3650193 49.9046552,63.736775 52.2477586,65.9077674 C54.5908621,68.0787598 57.4662069,66.3429153 57.4662069,66.3429153 C57.4662069,66.3429153 59.5951724,64.4994705 62.0437931,66.2400621 C64.4924138,67.9806537 67.5818966,65.3713487 67.5818966,65.3713487 C67.5818966,65.3713487 69.1786207,62.9819912 72.5862069,63.8507046 C75.9937931,64.719418 76,61.4613471 76,61.4613471 L63.1206897,43 L52.672931,43.4288185 Z" id="Path" fill="#ED695F"></path>
                    <g id="Group" opacity="0.08" transform="translate(40.000000, 43.000000)" fill="#FFFFFF">
                        <path d="M32.9342222,20.7424 C33.8675556,20.936 34.5208889,20.8064 34.986,20.5232 C34.2947014,20.4452439 33.595188,20.5199758 32.9342222,20.7424 L32.9342222,20.7424 Z" id="Path"></path>
                        <path d="M6.53644444,20.5776 C6.11022222,20.248 6.748,19.5904 6.748,19.5904 L3.22466667,18.1632 L12.726,0.0448 L0.0248888889,18.1616 L3.54822222,19.5904 C3.54822222,19.5904 2.90733333,20.2496 3.33511111,20.5792 C3.33511111,20.5792 4.83,22.0064 8.77955556,22.2256 C8.9124444,22.0589142 9.07776234,21.9226632 9.26488889,21.8256 C7.32511111,21.328 6.53644444,20.5776 6.53644444,20.5776 Z" id="Path"></path>
                        <path d="M15.5042222,22.7728 C13.1553333,20.576 11.9808889,22.224 11.9808889,22.224 C11.8486667,22.224 11.718,22.208 11.592,22.1984 C11.8421141,22.3718869 12.0792238,22.5644271 12.3013333,22.7744 C13.8833333,24.2544 15.7064444,23.9392 16.7284444,23.5744 C16.2775244,23.3837075 15.8630382,23.1123089 15.5042222,22.7728 L15.5042222,22.7728 Z" id="Path"></path>
                        <path d="M25.326,23.1104 C23.7704444,21.9904 22.3424444,22.3392 21.5055556,22.7392 C21.7223353,22.8455118 21.9304184,22.9696482 22.1277778,23.1104 C23.3255556,23.9664 24.6742222,23.7792 25.7428889,23.3616 C25.5981729,23.2884035 25.4588403,23.2044475 25.326,23.1104 Z" id="Path"></path>
                    </g>
                    <path d="M64.6313251,45 L52.7966745,45 C52.7966745,45 52.0576824,35.8380729 51,34.4370033 C51.433958,34.244989 51.8786385,34.0792535 52.3317253,33.9406602 C53.0395724,33.716104 53.7591568,33.5320449 54.487119,33.3893425 C56.9970676,32.8951637 59.5742231,32.8712128 62.0925793,33.3186607 C62.8269785,33.4506674 63.5537211,33.6237054 64.2695268,33.8369937 C64.8381402,34.0055827 65.4149646,34.205586 66,34.4370033 C66,34.4370033 63.8907934,43.0601783 64.6313251,45 Z" id="Path" fill="#ED695F"></path>
                    <path d="M55,45 L53.6942078,45 C53.677598,42.9045043 52.4689097,36.1294468 52,33.5697281 C52.5874407,33.3376731 53.1846222,33.1474677 53.7887564,33 C53.8896934,35.6960638 54.7597956,43.0181253 55,45 Z" id="Path" fill="#FFFFFF" opacity="0.08"></path>
                    <path d="M64,33.5324728 C63.5493017,35.9899153 62.3140076,42.8910851 62.2975032,45 L61,45 C61.2399492,43.0104881 62.1184934,35.6171843 62.2035548,33 C62.8095896,33.13555 63.4093082,33.3133087 64,33.5324728 L64,33.5324728 Z" id="Path" fill="#FFFFFF" opacity="0.08"></path>
                    <ellipse id="Oval" fill="#3B477B" cx="90.5" cy="70" rx="8.5" ry="1"></ellipse>
                    <rect id="Rectangle" fill="#3B477B" x="90" y="20" width="2" height="51"></rect>
                    <circle id="Oval" fill="#3B477B" cx="92" cy="22" r="3"></circle>
                    <path d="M96.4881276,38.2201109 C96.391223,37.8789769 96.2943184,37.5579096 96.2003954,37.2692577 L96.2003954,33.3330956 L97.428848,27.9305203 C94.5634525,23.5868497 90.5709815,27.9305203 90.5709815,27.9305203 C86.171511,23.9048298 83.9203417,27.9305203 83.9203417,27.9305203 C84.2274549,28.6714449 84.9430584,33.3330956 84.9430584,33.3330956 L84.9430584,37.8095152 C83.3150605,41.3397123 82.8275556,45.2635256 83.0511817,49.1950569 L83.8174737,62.6814286 C83.8174737,62.6814286 91.1837169,65.6482143 97.3229984,62.6814286 L97.9372247,51.3730666 C98.1856617,46.9351656 97.6954928,42.4860708 96.4881276,38.2201109 L96.4881276,38.2201109 Z" id="Path" fill="#ED695F"></path>
                    <g id="Group" opacity="0.08" transform="translate(83.000000, 26.000000)" fill="#000000">
                        <path d="M9.58710843,2.1 C9.58710843,2.1 11.1126506,0.529230769 12.9827711,0.221538462 C11.2786747,-0.32 9.5886747,0.683076923 8.6739759,1.38461538 C8.99172482,1.60612801 9.29658068,1.84496431 9.58710843,2.1 L9.58710843,2.1 Z" id="Path"></path>
                        <path d="M2.49349398,36.7307692 L1.68843373,23.2892308 C1.45349398,19.3707692 1.96566265,15.4584615 3.6760241,11.9415385 L3.6760241,7.48 C3.6760241,7.48 2.92421687,2.83384615 2.60156627,2.09538462 C2.60156627,2.09538462 3.46614458,0.629230769 5.17180723,0.356923077 C2.39951807,-0.401538462 0.989879518,1.99076923 0.989879518,1.99076923 C1.31253012,2.72923077 2.06433735,7.37538462 2.06433735,7.37538462 L2.06433735,11.8369231 C0.353975904,15.3553846 -0.158192771,19.2661538 0.076746988,23.1846154 L0.881807229,36.6261538 C3.15187274,37.4135584 5.53166464,37.8535672 7.93783133,37.9307692 C6.08048203,37.7475472 4.25246353,37.3446291 2.49349398,36.7307692 L2.49349398,36.7307692 Z" id="Path"></path>
                    </g>
                    <g id="Group" opacity="0.08" transform="translate(86.000000, 26.000000)" fill="#000000">
                        <path d="M2.943,1.99384615 C3.17397359,1.7557149 3.42109104,1.53464971 3.6825,1.33230769 C2.1825,0.227692308 0.9615,0.0738461538 0.03,0.301538462 C0.8655,0.489230769 1.836,0.990769231 2.943,1.99384615 Z" id="Path"></path>
                        <path d="M10.4385,12.2492308 C10.341,11.9092308 10.2435,11.5892308 10.149,11.3015385 L10.149,7.37846154 L11.385,1.99384615 C10.17,0.169230769 8.754,-0.116923077 7.5225,0.161538462 C8.3115,0.36 9.1125,0.9 9.84,1.99384615 L8.604,7.37846154 L8.604,11.2984615 C8.6985,11.5861538 8.7945,11.9061538 8.8935,12.2461538 C10.1087815,16.4962778 10.6029721,20.9289791 10.3545,25.3507692 L9.7365,36.6215385 C7.9365,37.4846154 6.027,37.8430769 4.23,37.9184615 C6.447,38.0092308 8.952,37.7353846 11.28,36.6215385 L11.907,25.3538462 C12.1530403,20.9316139 11.6563119,16.498904 10.4385,12.2492308 L10.4385,12.2492308 Z" id="Path"></path>
                    </g>
                    <rect id="Rectangle" fill="#EDEDF4" x="11" y="82" width="10" height="5"></rect>
                    <rect id="Rectangle" fill="#EDEDF4" x="20" y="88" width="10" height="5"></rect>
                    <rect id="Rectangle" fill="#EDEDF4" x="29" y="82" width="10" height="5"></rect>
                    <rect id="Rectangle" fill="#EDEDF4" x="29" y="92" width="10" height="5"></rect>
                    <rect id="Rectangle" fill="#EDEDF4" x="39" y="88" width="10" height="5"></rect>
                    <rect id="Rectangle" fill="#EDEDF4" x="48" y="82" width="10" height="5"></rect>
                    <rect id="Rectangle" fill="#EDEDF4" x="58" y="88" width="10" height="5"></rect>
                    <rect id="Rectangle" fill="#EDEDF4" x="67" y="82" width="10" height="5"></rect>
                    <rect id="Rectangle" fill="#EDEDF4" x="67" y="92" width="10" height="5"></rect>
                    <rect id="Rectangle" fill="#EDEDF4" x="76" y="88" width="10" height="5"></rect>
                    <rect id="Rectangle" fill="#EDEDF4" x="100" y="82" width="10" height="5"></rect>
                    <rect id="Rectangle" fill="#EDEDF4" x="92" y="88" width="10" height="5"></rect>
                    <rect id="Rectangle" fill="#EDEDF4" x="17" y="10" width="10" height="5"></rect>
                    <rect id="Rectangle" fill="#EDEDF4" x="27" y="5" width="10" height="5"></rect>
                    <rect id="Rectangle" fill="#EDEDF4" x="37" y="0" width="10" height="5"></rect>
                    <rect id="Rectangle" fill="#EDEDF4" x="37" y="10" width="10" height="5"></rect>
                    <rect id="Rectangle" fill="#EDEDF4" x="45" y="5" width="10" height="5"></rect>
                    <rect id="Rectangle" fill="#EDEDF4" x="55" y="10" width="10" height="5"></rect>
                    <rect id="Rectangle" fill="#EDEDF4" x="65" y="5" width="10" height="5"></rect>
                    <rect id="Rectangle" fill="#EDEDF4" x="74" y="0" width="10" height="5"></rect>
                    <rect id="Rectangle" fill="#EDEDF4" x="74" y="10" width="10" height="5"></rect>
                    <rect id="Rectangle" fill="#EDEDF4" x="83" y="5" width="10" height="5"></rect>
                    <polygon id="Path" fill="#FFFFFF" opacity="0.3" points="34.0474041 15 6 40.011773 6 45 41 15"></polygon>
                    <polygon id="Path" fill="#FFFFFF" opacity="0.3" points="7 53.5641947 7 64 67 15.1775644 58.1538462 15"></polygon>
                    <path d="M27.9527943,119.017002 L27.96495,118.993782 L27.9786251,118.964369 L27.9877419,118.939601 C27.9914462,118.926873 27.9944894,118.913955 27.9968586,118.9009 C27.9968586,118.888516 27.9968586,118.87768 27.9968586,118.865296 C27.9968586,118.852912 27.9968586,118.845171 27.9968586,118.835883 C27.9968586,118.826595 27.9968586,118.815759 27.9968586,118.806471 C27.9968586,118.797183 27.9968586,118.787894 27.9968586,118.780154 C27.9968586,118.772414 27.9968586,118.763126 27.9968586,118.755386 C28.0242089,118.53247 27.8692241,118.280141 27.6777724,118.060321 C27.4151503,117.756886 27.0440553,117.573426 26.6475798,117.55102 C24.45956,117.445754 22.0025962,113.62677 22.0025962,113.62677 L21.9038314,113.708816 C21.6398152,113.194089 21.4201877,112.656968 21.2474255,112.103511 L21.4905388,112.103511 L21.4905388,112.047782 L21.4905388,112.047782 L21.4905388,111.992053 L21.4905388,111.992053 L21.1532191,108.431589 L22.064894,97.7703228 C22.3461233,97.1312357 22.5575836,96.4626046 22.6954691,95.7764631 C22.7466666,95.521867 22.7701071,95.2622887 22.7653642,95.0024493 C22.7653642,94.983873 22.7653642,94.9652966 22.7653642,94.9467203 C22.7647522,94.3710678 22.6282108,93.8040141 22.3672662,93.2934268 L18.54279,85.7870406 C18.6734634,85.8009729 18.7555142,85.8025209 18.7555142,85.8025209 C19.8829521,84.1631596 19.1612095,81.725016 18.3574161,79.9680047 C18.526076,79.875123 18.6400354,79.8132019 18.6400354,79.8132019 C18.6015133,79.797847 18.5648142,79.7781138 18.5306344,79.7543768 L18.6400354,79.7001959 C17.9836294,79.4571555 17.4457412,77.5329571 17.1950307,76.4493378 L17.5612201,75.0870734 C18.1714762,75.1802539 18.7652034,75.3632855 19.3237915,75.6304311 C19.3237915,75.6304311 19.2736494,75.5251653 19.1870403,75.3363059 L19.1870403,75.3363059 L19.3161942,75.401323 C19.3161942,75.401323 19.2660521,75.2991532 19.1824819,75.1149379 L19.1824819,75.1149379 C18.7175277,74.0854995 17.1904723,70.4708549 17.1524858,67.2958502 C17.1552313,66.8729722 17.1918195,66.4510264 17.2618868,66.0342077 C17.3316408,65.6368102 17.3636972,65.2334962 17.3576127,64.8298421 C17.4300357,62.986266 16.4622398,61.2625822 14.8657013,60.3916468 C14.8657013,60.3916468 13.3827102,59.1532247 13.0423515,57.6825984 C12.9299116,57.1996138 12.5865141,56.8033187 12.1671437,56.4875211 C12.3190895,55.3311444 12.8934446,54.2583612 13.4753971,53.4332625 C13.5407338,53.4208783 13.6045511,53.408494 13.6683683,53.3930138 C13.7433282,53.2898119 13.8167687,53.1948662 13.8886897,53.1081767 C15.601523,52.6164983 16.7905488,51.0324313 16.8075688,49.2195312 C16.8021055,47.8822239 16.1450281,46.6350152 15.0541141,45.8912717 C15.1559178,45.8788875 15.2698772,45.7999381 15.4066284,45.5816662 C15.5818279,45.2667605 15.6026226,44.8865628 15.4628484,44.5537758 C15.3540477,44.3126089 15.1960625,44.0978255 14.9994136,43.9237286 C14.6946048,43.6305517 14.3527466,43.3801399 13.9828961,43.1791273 C13.1274412,42.6682781 12.2385582,42.1450448 11.2478715,42.0258466 C10.7442175,41.9830479 10.2375696,41.9934233 9.73601062,42.0568072 L7.44162882,42.2657909 C6.35065787,42.3648647 5.13205244,42.5289556 4.45589357,43.3834669 C3.77973469,44.2379782 3.88153839,45.4872365 3.2023406,46.3247195 C2.70091941,46.9439305 1.87737309,47.2009031 1.25895363,47.7024641 C0.125437851,48.6219925 -0.173895403,50.2582578 0.0889708558,51.6839912 C0.351837115,53.1097247 1.07813811,54.4038758 1.69503812,55.7196993 C2.31193812,57.0355229 2.84070956,58.4643524 2.66445241,59.899374 C2.5125066,61.1377962 1.8515423,62.2709524 1.61602629,63.5000864 C1.4419329,64.4105336 1.50532786,65.3515813 1.79988073,66.2292591 C1.84720215,66.4090314 1.93691902,66.5743022 2.06122753,66.7106958 C2.08006869,66.7278271 2.09985379,66.7438494 2.1204864,66.7586846 C2.13736956,66.7814993 2.15563883,66.8032142 2.17518689,66.8237018 C2.40006669,67.0404256 2.74346424,67.0682901 3.05799207,67.0775783 C3.81772114,67.1038948 4.59872263,67.1100869 5.29463446,67.4104043 C5.52828115,67.5113707 5.74391807,67.6510317 5.93280688,67.8237276 C6.25214341,68.1360349 6.42192595,68.5746901 6.39776108,69.0249971 C6.33394383,69.7061293 5.7580692,70.418222 6.11970023,70.9956363 L6.1789591,70.9956363 C6.19451165,71.0321043 6.21279928,71.0672971 6.2336596,71.1009022 C6.61553684,71.1635953 7.00397271,71.1734888 7.38844779,71.1303147 C7.47539572,71.7785772 7.52612606,72.4313484 7.5403936,73.0854737 C7.5403936,73.7929223 7.4461872,74.392009 7.22738522,74.7449593 L7.26841059,74.7449593 L7.31247488,74.7449593 L7.34134458,74.7449593 C7.31089541,74.8269535 7.27273116,74.905754 7.22738522,74.9802595 L7.67562538,74.9462029 C7.10021584,75.9219686 6.47380419,76.8655593 5.79909457,77.7729014 C4.94856721,78.8394633 4.48063314,80.1697268 4.47260761,81.5438968 C4.46881787,81.745901 4.47591937,81.9479648 4.49388002,82.1491756 C4.59568371,83.2513713 4.984665,84.4278723 5.97383225,85.3644291 C5.97383225,85.3644291 6.3932027,86.4000596 6.4114362,87.2824354 C6.41170329,87.4749896 6.3793185,87.6661436 6.31571034,87.8474655 L6.31571034,95.8585086 L4.948198,101.162051 C4.77330353,102.222409 4.68638717,103.295891 4.68837066,104.371113 C4.68837066,105.91914 4.87678347,107.727237 5.63195417,109.061637 L6.77306724,114.591191 L6.8870266,114.603576 L6.8870266,116.151603 C6.74723645,116.027761 6.65910788,115.941071 6.65910788,115.941071 L6.32026871,119.326608 L6.33090492,119.326608 L6.32026871,119.436518 C6.32026871,119.436518 8.26061676,119.888542 13.7367439,120 L14.022402,120 L14.3916304,120 L14.5709264,120 L14.6529772,120 L14.8808959,120 L14.8960905,120 L15.1270481,119.989164 L15.1954237,119.989164 L15.3473696,119.979876 L15.421823,119.979876 L15.5631326,119.969039 L15.6284693,119.969039 L15.7971292,119.952011 L15.8214405,119.952011 L16.002256,119.930339 L16.0523981,119.930339 L16.1724353,119.911762 L16.2286553,119.902474 L16.3365368,119.883898 L16.3866789,119.87461 L16.5112745,119.848293 L16.5310274,119.848293 L16.6662592,119.815785 L16.6996873,119.806497 L16.7923742,119.781728 L16.8318802,119.769344 L16.9124114,119.744575 L16.947359,119.733739 L17.037007,119.701231 L17.0522016,119.701231 L17.1479275,119.660982 L17.1676804,119.651694 L17.2345366,119.619185 L17.2588479,119.606801 L17.3135484,119.57584 L17.3348208,119.563456 L17.3940797,119.526304 L17.401677,119.526304 L17.4624553,119.479863 L17.4700526,119.479863 L17.5125974,119.441162 L17.5247531,119.428778 L17.5581812,119.393173 L17.5672979,119.382337 L17.5992065,119.34054 L17.5992065,119.34054 C17.6097737,119.324618 17.6194135,119.308077 17.6280762,119.291003 L17.6280762,119.291003 C17.6354954,119.276435 17.6420905,119.261446 17.6478292,119.246111 L17.6478292,119.236822 C17.6520678,119.223606 17.6556182,119.210171 17.6584654,119.196574 L17.6584654,119.187285 C17.6593319,119.172334 17.6593319,119.157344 17.6584654,119.142393 L17.6584654,119.142393 C17.6615266,119.114098 17.6615266,119.085546 17.6584654,119.057251 C17.7177243,118.65012 17.1114605,118.256921 16.5796501,118.256921 C15.438537,118.256921 11.6733198,114.98439 11.445401,114.758378 C11.3496752,114.663949 11.1764569,114.693361 10.9622133,114.800175 C10.792034,114.645372 10.6021018,114.447225 10.4182473,114.236693 C10.482052,114.160686 10.5217804,114.066783 10.5322067,113.967336 L10.5170121,113.928636 C10.5239702,113.904308 10.5290506,113.879464 10.5322067,113.85433 C10.5322067,113.85433 9.75728303,111.936324 9.72537441,111.018344 C9.72629868,110.985726 9.72883432,110.953176 9.7329717,110.920818 L9.82565865,102.821537 C9.84652306,101.76645 10.1773095,100.741951 10.77532,99.8802845 C11.246352,99.1883161 11.7310592,98.117081 11.7872791,96.5938217 L13.369035,90.7221528 C15.4886792,92.7191085 17.1676804,95.3662358 17.3591321,95.6603611 C17.236056,96.2052668 16.5431831,99.3972998 16.5583777,102.51348 C16.5583777,102.532056 16.5583777,102.550632 16.5583777,102.569209 C16.5495684,103.517515 16.6330401,104.464376 16.8075688,105.395907 C17.1917351,107.256538 17.3953098,109.151159 17.4153521,111.0524 C17.4153521,111.693284 17.3849629,112.053974 17.3849629,112.053974 L17.3849629,112.053974 C17.3849629,112.089579 17.3849629,112.109703 17.3849629,112.109703 L17.3849629,112.109703 C17.3849629,112.145308 17.3849629,112.165432 17.3849629,112.165432 L17.6128816,112.165432 L17.6128816,113.620578 L17.5551422,113.575685 L16.128371,116.114451 L16.1587602,116.143863 L16.128371,116.225909 C16.128371,116.225909 18.5245565,118.702753 24.4580406,119.385433 L24.7892825,119.421038 L24.8834889,119.430326 L25.1129271,119.45045 L25.2010556,119.45045 L25.4882332,119.472123 L25.4882332,119.472123 L25.74958,119.486055 L25.8255529,119.486055 L26.0078879,119.486055 L26.3117795,119.486055 L26.5093091,119.486055 L26.5700874,119.486055 L26.7098776,119.486055 L26.7645781,119.486055 L26.9347574,119.472123 L26.9605882,119.472123 L27.1003783,119.455094 L27.1474815,119.455094 L27.2462463,119.438066 L27.2887911,119.430326 L27.4103478,119.402461 L27.4285813,119.402461 L27.5197488,119.374597 L27.5546963,119.362213 L27.6185135,119.337444 L27.6504222,119.32506 L27.7279145,119.286359 L27.7446286,119.275523 L27.7962901,119.243014 L27.8206015,119.225986 L27.855549,119.198122 L27.875302,119.179545 C27.8887454,119.166372 27.9014287,119.152416 27.9132884,119.137749 L27.928483,119.117624 L27.9527943,119.017002 Z" id="Path" fill="url(#linearGradient-1)"></path>
                    <path d="M16.8042435,78.5915647 C16.8042435,78.5915647 20.3690849,84.0388899 18.4143263,87 C18.4143263,87 15.542028,87 16.2297839,83.802264 C16.6425039,81.8803269 16.5633236,79.8809472 16,78 L16.8042435,78.5915647 Z" id="Path" fill="#F7C4A7"></path>
                    <path d="M8,113.89033 L8,117.684097 L11.6360769,118 L13,116.098729 L12.6594134,115.572223 C12.6594134,115.572223 11.0684327,114.416835 10.7278461,113.362361 C10.3872595,112.307887 8,113.89033 8,113.89033 Z" id="Path" fill="#F7C4A7"></path>
                    <path d="M8.09764104,117.202352 C8.09764104,117.202352 10.4975756,114.592834 10.973266,115.054828 C11.1942318,115.269431 14.8432372,118.38416 15.949601,118.38416 C17.0559647,118.38416 18.4937771,120.102478 13.1875279,119.995176 C7.88127865,119.887874 6,119.458668 6,119.458668 L6.33144877,116.236637 C6.33144877,116.236637 7.54522643,117.416955 8.09764104,117.202352 Z" id="Path" fill="#000000" opacity="0.1"></path>
                    <path d="M8.09764104,117.202352 C8.09764104,117.202352 10.4975756,114.592834 10.973266,115.054828 C11.1942318,115.269431 14.8432372,118.38416 15.949601,118.38416 C17.0559647,118.38416 18.4937771,120.102478 13.1875279,119.995176 C7.88127865,119.887874 6,119.458668 6,119.458668 L6.3283798,116.239617 C6.3283798,116.239617 7.54522643,117.416955 8.09764104,117.202352 Z" id="Path" fill="#F3B5B7"></path>
                    <path d="M18,110.333505 L18,113.444502 L19.6587678,115 L21.5125254,114.445015 L22,113.222508 C22,113.222508 21.0236967,111.667009 20.7312119,109 L18,110.333505 Z" id="Path" fill="#F7C4A7"></path>
                    <path d="M19.1132085,115.10767 L20.4977459,115.10767 L21.9383051,114.087589 C21.9383051,114.087589 24.4224694,117.374217 26.6329275,117.464501 C27.0363219,117.485529 27.4120711,117.644183 27.6733313,117.903796 C28.2511556,118.467064 28.5168588,119.2931 24.4176676,118.895579 C18.4217401,118.318836 16,116.185695 16,116.185695 L17.4405592,114 L19.1132085,115.10767 Z" id="Path" fill="#000000" opacity="0.1"></path>
                    <path d="M19.1155786,115.114999 L20.4997468,115.114999 L21.9399218,114.09684 C21.9399218,114.09684 24.4234235,117.377278 26.6332921,117.467393 C27.0365789,117.48838 27.4122279,117.646736 27.6734185,117.90586 C28.2510887,118.468067 28.5167209,119.292548 24.418623,118.895775 C18.4210942,118.314738 16,116.181579 16,116.181579 L17.440175,114 L19.1155786,115.114999 Z" id="Path" fill="#F3B5B7"></path>
                    <path d="M17.5,75.7233134 C17.5,75.7233134 18.14222,79.6618275 19,80.030743 C19,80.030743 17.17889,81.0162254 17.5,82 L16,74 L17.82111,74.2459436 L17.5,75.7233134 Z" id="Path" fill="#000000" opacity="0.1"></path>
                    <path d="M17.5,75.7233134 C17.5,75.7233134 18.14222,79.6618275 19,80.030743 C19,80.030743 17.17889,81.0162254 17.5,82 L16,74 L17.82111,74.2391119 L17.5,75.7233134 Z" id="Path" fill="#FC6681"></path>
                    <path d="M17.5,75.7233134 C17.5,75.7233134 18.14222,79.6618275 19,80.030743 C19,80.030743 17.17889,81.0162254 17.5,82 L16,74 L17.82111,74.2391119 L17.5,75.7233134 Z" id="Path" fill="#000000" opacity="0.1"></path>
                    <path d="M16.0930544,80 L22.6181782,92.9213368 C22.9757753,93.6273153 23.0863541,94.4324447 22.9322946,95.2084331 C22.7996968,95.8714661 22.5962025,96.5183835 22.3253063,97.1380759 L21.4497258,107.507256 L21.772947,111 L17.8426981,111 C17.8426981,111 18.0612138,108.27366 17.2964086,104.450726 C16.5316034,100.627791 17.8426981,95.059999 17.8426981,95.059999 C17.8426981,95.059999 15.4375071,91.1310402 12.703025,89.1650462 C9.96854287,87.1990521 16.0930544,80 16.0930544,80 Z" id="Path" fill="#000000" opacity="0.1"></path>
                    <path d="M16.0930544,80 L22.6181782,92.9225996 C22.9757753,93.6286471 23.0863541,94.4338552 22.9322946,95.2099194 C22.7996968,95.8730172 22.5962025,96.5199978 22.3253063,97.1397508 L21.4527607,107.516003 L21.772947,111 L17.8426981,111 C17.8426981,111 18.0612138,108.273394 17.2964086,104.450086 C16.5316034,100.626777 17.8426981,95.0584412 17.8426981,95.0584412 C17.8426981,95.0584412 15.4375071,91.1290985 12.703025,89.1629123 C9.96854287,87.1967261 16.0930544,80 16.0930544,80 Z" id="Path" fill="#575988"></path>
                    <path d="M16.0930544,80 L22.6181782,92.9213368 C22.9757753,93.6273153 23.0863541,94.4324447 22.9322946,95.2084331 C22.7996968,95.8714661 22.5962025,96.5183835 22.3253063,97.1380759 L21.4497258,107.507256 L21.772947,111 L17.8426981,111 C17.8426981,111 18.0612138,108.27366 17.2964086,104.450726 C16.5316034,100.627791 17.8426981,95.059999 17.8426981,95.059999 C17.8426981,95.059999 15.4375071,91.1310402 12.703025,89.1650462 C9.96854287,87.1990521 16.0930544,80 16.0930544,80 Z" id="Path" fill="#000000" opacity="0.05"></path>
                    <path d="M8.67741169,75 C8.67741169,75 7.30404277,77.4388843 6.2894126,78.7516551 C5.35202197,79.9404224 4.89824085,81.4405133 5.01920032,82.9506704 C5.117738,84.0305053 5.49649221,85.1951845 6.45877424,86.117672 C6.45877424,86.117672 7.12390358,87.7852457 6.79133891,88.6753382 L6.79133891,96.5689316 L5.45954058,101.79379 C5.45954058,101.79379 4.57116181,106.685442 6.12466992,109.465246 L7.23475847,114.912242 C7.23475847,114.912242 10.7851942,115.356517 10.8960491,114.24583 C10.8960491,114.24583 10.0076704,112.022912 10.1262235,111.243888 L10.2155233,103.263908 C10.2338542,102.227023 10.5550146,101.218242 11.139314,100.362237 C11.6012094,99.6819415 12.0631048,98.6252459 12.1246908,97.1227327 L18,75 L8.67741169,75 Z" id="Path" fill="#000000" opacity="0.1"></path>
                    <path d="M8.67741169,75 C8.67741169,75 7.30404277,77.4386962 6.2894126,78.7513658 C5.35202197,79.9400413 4.89824085,81.4400165 5.01920032,82.9500572 C5.117738,84.0298089 5.49649221,85.1943981 6.45877424,86.1168146 C6.45877424,86.1168146 7.12390358,87.7842596 6.79133891,88.6742835 L6.79133891,96.5703531 L5.45954058,101.794809 C5.45954058,101.794809 4.57116181,106.686084 6.12466992,109.465673 L7.23475847,114.912249 C7.23475847,114.912249 10.7851942,115.356489 10.8960491,114.245888 C10.8960491,114.245888 10.0076704,112.023142 10.1262235,111.244178 L10.2155233,103.264813 C10.2338542,102.228008 10.5550146,101.219305 11.139314,100.363366 C11.6012094,99.6831229 12.0631048,98.6265088 12.1246908,97.1241115 L18,75 L8.67741169,75 Z" id="Path" fill="#575988"></path>
                    <path d="M15.9209397,82.1965423 C15.9209397,82.1965423 16.5407726,86.6228389 14.309374,88 C14.309374,88 13.4155749,87.3175614 14.6663978,85.0491356 L14.7556537,82 L15.9209397,82.1965423 Z" id="Path" fill="#F7C4A7"></path>
                    <path d="M24.4187057,118.698036 C18.9683899,118.162517 16.472062,116.32976 16.0624082,116 L16,116.14444 C16,116.14444 18.421118,118.304232 24.4187057,118.894257 C27.4863086,119.195402 28.1087904,118.80296 27.9855742,118.349199 C27.870359,118.707575 27.0302487,118.954214 24.4187057,118.698036 Z" id="Path" fill="#000000" opacity="0.1"></path>
                    <path d="M13.1872241,118.695158 C8.27707953,118.602007 6.29614309,118.251647 6.03222282,118.200205 L6,118.494952 C6,118.494952 7.87966471,118.895363 13.1872241,118.995466 C16.4908307,119.05803 17.1767165,118.460194 16.9649665,118 C16.7823705,118.386508 15.8034105,118.74938 13.1872241,118.695158 Z" id="Path" fill="#000000" opacity="0.1"></path>
                    <path d="M8,85 C8,85 10.6185671,85 11.3814329,84.3076923 C12.1442987,83.6153846 14,84.3076923 14,84.3076923" id="Path" fill="#000000" opacity="0.1"></path>
                    <path d="M6.57606021,109.61488 C5.02321699,106.835064 5.91121554,101.934867 5.91121554,101.934867 L7.24244387,96.7041813 L7.24244387,88.8017837 C7.57486621,87.9106984 6.91002154,86.2412648 6.91002154,86.2412648 C5.94815136,85.3146597 5.56955925,84.1579476 5.47106374,83.0707309 C5.35015604,81.5588894 5.80374295,80.0571253 6.74073239,78.8670322 C7.75492831,77.5527972 9.12770943,75.1111926 9.12770943,75.1111926 L17.9707591,75.1111926 L18,75 L8.68294066,75 C8.68294066,75 7.31015953,77.4416046 6.29596361,78.7558395 C5.35585279,79.945215 4.89946119,81.447714 5.01860001,82.9610826 C5.11709552,84.0421219 5.49568762,85.2081001 6.4575578,86.1316165 C6.4575578,86.1316165 7.12240247,87.8010502 6.78998014,88.6921354 L6.78998014,96.594533 L5.45875181,101.825219 C5.45875181,101.825219 4.57075325,106.722327 6.12359648,109.505231 L7.23320992,114.958303 C7.23320992,114.958303 7.40096008,114.979924 7.66258877,115 L6.57606021,109.61488 Z" id="Path" fill="#000000" opacity="0.1"></path>
                    <path d="M15,52.3417313 C15,52.3417313 12.8068783,54.8981361 12.718254,57.8357146 C12.6296296,60.773293 9,57.2258367 9,57.2258367 C9,57.2258367 11.7645503,55.6384601 11.5740741,51 L15,52.3417313 Z" id="Path" fill="#F7C4A7"></path>
                    <path d="M10.1142755,56.1317744 C10.1142755,56.1317744 6.66797199,54.845034 6,60.3133088 L6.77133025,67.4967416 C6.77133025,67.4967416 8.10573158,72.9635288 7.21561647,74.3573736 C7.21561647,74.3573736 16.33274,73.613593 19,75 C19,75 16.3311973,69.6447799 16.9945414,65.8872004 C17.6578854,62.129621 14.660496,60.7417264 14.660496,60.7417264 C14.660496,60.7417264 13.2150231,59.5620904 12.8818085,58.1682456 C12.5485938,56.7744008 10.1142755,56.1317744 10.1142755,56.1317744 Z" id="Path" fill="#000000" opacity="0.1"></path>
                    <path d="M10.1164611,56.1330702 C10.1164611,56.1330702 6.67220114,54.8403664 6,60.3131595 L6.63519924,66.1801603 C6.71999526,66.9611379 6.84333491,67.7391402 7.00059298,68.5097048 C7.33669355,70.1594268 7.87013757,73.3413525 7.22260436,74.3573671 C7.22260436,74.3573671 16.3343216,73.6135789 19,75 C19,75 16.3327799,69.6447254 16.9957306,65.8871078 C17.6586812,62.1294902 14.6630693,60.7415815 14.6630693,60.7415815 C14.6630693,60.7415815 13.2184535,59.5619335 12.8854364,58.1680746 C12.5524194,56.7742156 10.1164611,56.1330702 10.1164611,56.1330702 Z" id="Path" fill="#FC6681"></path>
                    <path d="M9,64 L13.2108061,78.2316876 C13.2108061,78.2316876 14.8487026,81.6556075 14.1474427,82.6192345 C14.1474427,82.6192345 16.0190924,83.4759569 16.8388523,82.6192345 C17.6586122,81.7625122 15.0840792,71.9183714 15.0840792,71.9183714 L13.5630594,64 L9,64 Z" id="Path" fill="#000000" opacity="0.1"></path>
                    <path d="M11,64 L15.2077282,78.2316876 C15.2077282,78.2316876 16.8469551,81.6556075 16.1451255,82.6192345 C16.1451255,82.6192345 18.0182956,83.4759569 18.8387214,82.6192345 C19.6591471,81.7625122 17.0825229,71.9183714 17.0825229,71.9183714 L15.5602676,64 L11,64 Z" id="Path" fill="#FC6681"></path>
                    <path d="M14,66 C14,66 15.1184672,69.0540672 15.6769251,69.3697029 C16.2353831,69.6853385 15.9003083,72 15.9003083,72" id="Path" fill="#000000" opacity="0.1"></path>
                    <path d="M11,52.9595376 C11.5974914,53.2369942 12.1660965,54 12.9171418,54 C13.2300848,53.9999288 13.5419096,53.9715995 13.8460661,53.9156069 C14.1919379,53.5578724 14.5780347,53.2236675 15,52.916763 L11.0562524,52 C11.0957811,52.5919075 11.1611555,52.5063584 11,52.9595376 Z" id="Path" fill="#000000" opacity="0.1"></path>
                    <circle id="Oval" fill="#F7C4A7" cx="13" cy="50" r="4"></circle>
                    <g id="Group" opacity="0.1" transform="translate(6.000000, 56.000000)" fill="#000000">
                        <path d="M1.85058824,18.31125 C2.46235294,17.2558594 1.93623529,14.143125 1.60741176,12.5221875 C1.45447059,11.7532812 1.32905882,10.9769531 1.24494118,10.1976562 L0.614823529,4.34328125 C1.02776471,0.939609375 2.51282353,0.158828125 3.57117647,0.0534375 C2.56941176,-0.043046875 0.555176471,0.286484375 0.0642352941,4.34328125 L0.694352941,10.1976562 C0.778470588,10.9769531 0.900823529,11.7532812 1.05682353,12.5221875 C1.39023529,14.1683594 1.91941176,17.3434375 1.27705882,18.3572656 C1.28164706,18.3528125 1.48658824,18.3364844 1.85058824,18.31125 Z" id="Path"></path>
                        <path d="M6.67741176,18.1524219 C9.12447059,18.1642969 11.7244706,18.3483594 12.9587059,18.9955469 C12.9587059,18.9955469 12.9112941,18.8990625 12.8302353,18.7239062 C11.3375294,18.2563281 8.88741176,18.1420312 6.67741176,18.1524219 Z" id="Path"></path>
                    </g>
                    <path d="M14.55614,48.9387619 C14.211591,49.8000218 13.5963248,50.5056506 12.9641387,51.1871036 C12.6118988,51.5708932 12.2488917,51.9592156 12.0412394,52.4321531 C11.8741166,52.8590534 11.7705069,53.3073883 11.7336063,53.7633286 C11.4874998,55.6293918 11.2583131,57.6178446 12.0889225,59.3116559 C12.3211855,59.7861043 12.6334331,60.2273112 12.7872497,60.7304683 C13.0671958,61.6521675 12.7872497,62.644883 12.4150136,63.5378736 C11.9065384,64.7801861 11.2464538,65.9572854 10.4492381,67.0433527 C9.9877884,67.6704103 9.46788845,68.295957 9.30330474,69.0514482 C9.19255682,69.5576273 9.23408729,70.1302896 8.9079962,70.5367439 C8.47269535,71.0791866 7.6359333,71.0368791 6.93914431,70.9431982 C6.58844257,70.3811127 7.14679666,69.6981487 7.20832328,69.0423823 C7.27754073,68.3216437 6.70072865,67.6643664 6.02547398,67.3803017 C5.35021931,67.096237 4.58882737,67.0781053 3.85204608,67.0599735 C3.54441297,67.0493966 3.21370738,67.0237099 2.99528787,66.8151943 C2.87388634,66.6823284 2.78683423,66.5227029 2.74149056,66.3498117 C2.46414775,65.5106357 2.40596606,64.6164436 2.57229235,63.7494111 C2.80147902,62.5632899 3.44443221,61.4738716 3.59055794,60.2741516 C3.76129431,58.8840478 3.24754702,57.5045209 2.64766246,56.2352957 C2.0477779,54.9660705 1.34175992,53.7179991 1.08642444,52.3414942 C0.831088963,50.9649892 1.12180225,49.3875236 2.22312877,48.499066 C2.8245515,48.0140406 3.62285941,47.7647286 4.11045789,47.1694015 C4.7703309,46.3640479 4.6811173,45.1492181 5.32868499,44.3347986 C5.97625268,43.5203791 7.17448364,43.35266 8.22812703,43.2559571 L10.4569289,43.0549965 C10.9441001,42.993757 11.4365229,42.9836267 11.925877,43.0247768 C12.8887686,43.1411225 13.7532176,43.6442796 14.583827,44.1383709 C15.1114178,44.4511442 15.6697719,44.7986702 15.9112639,45.3562226 C16.0466469,45.6777991 16.0262821,46.0423344 15.8558899,46.3474271 C15.4467379,46.9941275 15.252929,46.3700918 14.9329906,46.5166571 C14.4546211,46.7206397 14.8130137,48.2890394 14.55614,48.9387619 Z" id="Path" fill="#000000" opacity="0.1"></path>
                    <path d="M13.5546019,48.9402728 C13.2177436,49.7969998 12.5901721,50.5071616 11.9641387,51.1871036 C11.6118988,51.5708932 11.2488917,51.9592156 11.0412394,52.4321531 C10.8741166,52.8590534 10.7705069,53.3073883 10.7336063,53.7633286 C10.4874998,55.6293918 10.2583131,57.6178446 11.0889225,59.3116559 C11.3211855,59.7861043 11.6334331,60.2273112 11.7872497,60.7304683 C12.0671958,61.6521675 11.7872497,62.644883 11.4150136,63.5378736 C10.9065384,64.7801861 10.2464538,65.9572854 9.44923807,67.0433527 C8.9877884,67.6704103 8.46788845,68.295957 8.30330474,69.0514482 C8.19255682,69.5576273 8.23408729,70.1302896 7.9079962,70.5367439 C7.47269535,71.0791866 6.6359333,71.0368791 5.93914431,70.9431982 C5.58844257,70.3811127 6.14679666,69.6981487 6.20832328,69.0423823 C6.27754073,68.3216437 5.70072865,67.6643664 5.02547398,67.3803017 C4.35021931,67.096237 3.58882737,67.0781053 2.85204608,67.0599735 C2.54441297,67.0493966 2.21370738,67.0237099 1.99528787,66.8151943 C1.87388634,66.6823284 1.78683423,66.5227029 1.74149056,66.3498117 C1.46414775,65.5106357 1.40596606,64.6164436 1.57229235,63.7494111 C1.80147902,62.5632899 2.44443221,61.4738716 2.59055794,60.2741516 C2.76129431,58.8840478 2.24754702,57.5045209 1.64766246,56.2352957 C1.0477779,54.9660705 0.341759921,53.7179991 0.0864244419,52.3414942 C-0.168911037,50.9649892 0.121802249,49.3875236 1.22312877,48.499066 C1.8245515,48.0140406 2.62285941,47.7647286 3.11045789,47.1694015 C3.7703309,46.3640479 3.6811173,45.1492181 4.32868499,44.3347986 C4.97625268,43.5203791 6.17448364,43.35266 7.22812703,43.2559571 L9.45692889,43.0549965 C9.94410009,42.993757 10.4365229,42.9836267 10.925877,43.0247768 C11.8887686,43.1411225 12.7532176,43.6442796 13.583827,44.1383709 C14.1114178,44.4511442 14.6697719,44.7986702 14.9112639,45.3562226 C15.0466469,45.6777991 15.0262821,46.0423344 14.8558899,46.3474271 C14.4467379,46.9941275 14.252929,46.3700918 13.9329906,46.5166571 C13.453083,46.7221507 13.8114755,48.2860175 13.5546019,48.9402728 Z" id="Path" fill="#965D7B"></path>
                </g>
            </g>
        </g>
    </g>
</svg>