<?xml version="1.0" encoding="UTF-8"?>
<svg width="104px" height="26px" viewBox="0 0 104 26" version="1.1" xmlns="http://www.w3.org/2000/svg" xmlns:xlink="http://www.w3.org/1999/xlink">
    <title>268E5B31-AB68-4B52-B96D-E62D0EA005E7</title>
    <g id="Symbols" stroke="none" stroke-width="1" fill="none" fill-rule="evenodd">
        <g id="Components/Main-header" transform="translate(-65.000000, -27.000000)" fill="#212A39" fill-rule="nonzero" stroke="#212A39" stroke-width="1.2">
            <g id="NUTAAN-2-Copy" transform="translate(66.000000, 29.000000)">
                <path d="M16.2335168,22 L16.2335168,1.3253012 L13.4502869,1.3253012 L13.4502869,14.8686173 L0,0 L0,20.8135399 L2.78322989,20.8135399 L2.78322989,7.16924842 L16.2335168,22 Z M27.4739431,21.1669535 C29.4568451,21.1669535 31.129172,20.4264678 32.490924,18.9454963 C33.7013702,17.6159878 34.3065933,15.924651 34.3065933,13.8714859 L34.3065933,13.8714859 L34.3065933,1.3253012 L31.5233634,1.3253012 L31.5233634,13.0636833 C31.5233634,14.7634347 31.2645509,15.9877606 30.7469259,16.7366609 C29.9744701,17.8558042 28.8834758,18.4153758 27.4739431,18.4153758 C26.0723738,18.4153758 24.9853613,17.8558042 24.2129055,16.7366609 C23.6952805,15.9625167 23.436468,14.7381909 23.436468,13.0636833 L23.436468,13.0636833 L23.436468,1.3253012 L20.6532381,1.3253012 L20.6532381,13.8714859 C20.6532381,15.924651 21.2584612,17.6159878 22.4689074,18.9454963 C23.8226959,20.4264678 25.4910411,21.1669535 27.4739431,21.1669535 Z M43.8149666,20.8135399 L43.8149666,4.08950086 L48.0435648,4.08950086 L48.0435648,1.3253012 L36.7911933,1.3253012 L36.7911933,4.08950086 L41.0317367,4.08950086 L41.0317367,20.8135399 L43.8149666,20.8135399 Z M50.408713,20.8135399 L52.4632861,16.0803213 L60.3590584,16.0803213 L62.2941796,20.8135399 L65.3402038,20.8135399 L56.5365968,0.10097533 L47.4104696,20.8135399 L50.408713,20.8135399 Z M59.2242651,13.3161216 L53.6219698,13.3161216 L56.488816,6.68961561 L59.2242651,13.3161216 Z M68.5295702,20.8135399 L70.5841433,16.0803213 L78.4799157,16.0803213 L80.4150369,20.8135399 L83.461061,20.8135399 L74.657454,0.10097533 L65.5313269,20.8135399 L68.5295702,20.8135399 Z M77.3451224,13.3161216 L71.742827,13.3161216 L74.6096733,6.68961561 L77.3451224,13.3161216 Z M102,22 L102,1.3253012 L99.2167701,1.3253012 L99.2167701,14.8686173 L85.7664832,0 L85.7664832,20.8135399 L88.5497131,20.8135399 L88.5497131,7.16924842 L102,22 Z" id="NUTAAN"></path>
            </g>
        </g>
    </g>
</svg>