<?xml version="1.0" encoding="UTF-8"?>
<svg width="132px" height="92px" viewBox="0 0 132 92" version="1.1" xmlns="http://www.w3.org/2000/svg" xmlns:xlink="http://www.w3.org/1999/xlink">
    <title>Size-fitting</title>
    <g id="Dump" stroke="none" stroke-width="1" fill="none" fill-rule="evenodd">
        <g id="Group-7" transform="translate(-848.000000, -1738.000000)" fill-rule="nonzero">
            <g id="Group-27" transform="translate(439.000000, 1518.000000)">
                <g id="Group-20" transform="translate(384.000000, 164.000000)">
                    <g id="Size-fitting" transform="translate(25.000000, 56.000000)">
                        <rect id="Rectangle" fill="#ED695F" opacity="0.1" x="18" y="37" width="16" height="5" rx="2.5"></rect>
                        <rect id="Rectangle" fill="#6C63FF" opacity="0.1" x="35" y="41" width="16" height="5" rx="2.5"></rect>
                        <rect id="Rectangle" fill="#ED695F" opacity="0.1" x="51" y="47" width="16" height="5" rx="2.5"></rect>
                        <rect id="Rectangle" fill="#ED695F" opacity="0.1" x="18" y="29" width="16" height="5" rx="2.5"></rect>
                        <rect id="Rectangle" fill="#6C63FF" opacity="0.1" x="35" y="35" width="16" height="5" rx="2.5"></rect>
                        <rect id="Rectangle" fill="#ED695F" opacity="0.1" x="51" y="39" width="16" height="5" rx="2.5"></rect>
                        <rect id="Rectangle" fill="#ED695F" opacity="0.1" x="69" y="37" width="16" height="5" rx="2.5"></rect>
                        <rect id="Rectangle" fill="#ED695F" opacity="0.1" x="86" y="41" width="16" height="5" rx="2.5"></rect>
                        <rect id="Rectangle" fill="#ED695F" opacity="0.1" x="102" y="47" width="16" height="5" rx="2.5"></rect>
                        <rect id="Rectangle" fill="#ED695F" opacity="0.1" x="69" y="29" width="16" height="5" rx="2.5"></rect>
                        <rect id="Rectangle" fill="#ED695F" opacity="0.1" x="86" y="35" width="16" height="5" rx="2.5"></rect>
                        <rect id="Rectangle" fill="#ED695F" opacity="0.1" x="102" y="39" width="16" height="5" rx="2.5"></rect>
                        <rect id="Rectangle" fill="#ED695F" opacity="0.1" x="18" y="20" width="16" height="5" rx="2.5"></rect>
                        <rect id="Rectangle" fill="#6C63FF" opacity="0.1" x="35" y="25" width="16" height="5" rx="2.5"></rect>
                        <rect id="Rectangle" fill="#ED695F" opacity="0.1" x="51" y="29" width="16" height="5" rx="2.5"></rect>
                        <rect id="Rectangle" fill="#ED695F" opacity="0.1" x="18" y="13" width="16" height="5" rx="2.5"></rect>
                        <rect id="Rectangle" fill="#6C63FF" opacity="0.1" x="35" y="18" width="16" height="5" rx="2.5"></rect>
                        <rect id="Rectangle" fill="#ED695F" opacity="0.1" x="51" y="22" width="16" height="5" rx="2.5"></rect>
                        <rect id="Rectangle" fill="#ED695F" opacity="0.1" x="69" y="20" width="16" height="5" rx="2.5"></rect>
                        <rect id="Rectangle" fill="#ED695F" opacity="0.1" x="86" y="25" width="16" height="5" rx="2.5"></rect>
                        <rect id="Rectangle" fill="#ED695F" opacity="0.1" x="102" y="29" width="16" height="5" rx="2.5"></rect>
                        <rect id="Rectangle" fill="#ED695F" opacity="0.1" x="69" y="13" width="16" height="5" rx="2.5"></rect>
                        <rect id="Rectangle" fill="#ED695F" opacity="0.1" x="86" y="18" width="16" height="5" rx="2.5"></rect>
                        <rect id="Rectangle" fill="#ED695F" opacity="0.1" x="102" y="22" width="16" height="5" rx="2.5"></rect>
                        <ellipse id="Oval" fill="#ED695F" opacity="0.1" cx="66" cy="80" rx="66" ry="12"></ellipse>
                        <polygon id="Path" fill="#3F3D56" points="29.5288462 39.060177 24 73 49 70.3522124 47.9182692 67.4637168 28.3870192 69.0884956 32.9543269 39"></polygon>
                        <polygon id="Path" fill="#3F3D56" points="22 0.119815668 56.1274238 0 66 73.4470046 31.7506925 78"></polygon>
                        <polygon id="Path" fill="#FFFFFF" points="26 3 53.4163934 3 63 72.1196013 34.7344262 76"></polygon>
                        <path d="M51.8348371,68.751952 C51.9916255,69.0628424 52.1086647,69.3988784 52.3129313,69.6789083 C52.9091687,70.5041395 54.0409158,70.6332962 54.8900021,71.1716395 C54.9324865,71.1939691 54.9674967,71.229016 54.9904791,71.2722217 C55.0291242,71.367089 54.943001,71.4665282 54.8601902,71.5259632 C54.2164746,71.9934418 53.3718048,72.0037286 52.5845506,71.9980137 C52.3199811,72.0077566 52.0553172,71.9816273 51.7972963,71.9202911 C51.3810342,71.8059931 51.0243959,71.5053895 50.6136545,71.3830907 C50.4006736,71.3280237 50.1827015,71.2962274 49.963314,71.2882234 L49.100978,71.2276455 C48.8713989,71.2242142 48.6440407,71.180544 48.4285546,71.0984888 C48.2103063,71.0120439 48.050208,70.8156718 48.0045635,70.5784332 C47.9802723,70.3886986 48.0586665,70.2046789 48.1050406,70.0195162 C48.2154549,69.5806121 48.1812265,69.0502696 48.5113653,68.750809 C48.6474037,68.6429865 48.8033554,68.5651856 48.9695849,68.5222131 C49.5696957,68.3128688 50.1823139,68.1441142 50.8035672,68.0170162 C51.3147856,67.913005 51.6084877,68.3016181 51.8348371,68.751952 Z" id="Path" fill="#3F3D56"></path>
                        <path d="M40.9859981,71.7827606 C41.0131622,72.0809882 41.0213114,72.4226198 40.8121479,72.6312391 C40.6819124,72.7427323 40.5245638,72.8153617 40.3571492,72.8412585 C39.3534357,73.0820808 38.2342748,73.0988823 37.360949,72.5360303 C37.2700809,72.4825274 37.1898865,72.4117355 37.1246214,72.327411 C37.0518026,72.2125374 37.0105017,72.0794882 37.0050993,71.9423754 C36.9738606,71.5461387 37.0920244,71.1555026 37.1993226,70.7732673 C37.4532218,69.8663038 37.6460925,68.9423562 37.7765597,68.0080115 C37.7874254,67.9310044 40.3394925,68.4280504 40.5092681,68.6884744 C40.7225063,69.0105042 40.7238645,69.7833757 40.7809091,70.1670112 C40.8669288,70.7027941 40.9352918,71.2413772 40.9859981,71.7827606 Z" id="Path" fill="#3F3D56"></path>
                        <path d="M49.9518244,40.8593998 L50.5879038,46.4007386 C50.7151196,47.5330836 50.8486963,48.6713883 50.7609173,49.8073091 C50.6591446,51.1184454 50.2673197,52.4295817 50.4327004,53.7287985 C50.4975805,54.234182 50.6451509,54.7300299 50.6667776,55.2389892 C50.6708116,55.577439 50.6525426,55.9157994 50.6120748,56.2521399 C50.3245669,59.6146086 51.2341604,62.9508545 51.7430239,66.2894843 C51.8248545,66.7012954 51.8428501,67.1220136 51.7964546,67.5386396 C51.7303023,67.961779 51.5979978,68.517224 52,68.7174703 L48.2242327,70 C47.7420846,69.4338275 48.0613964,68.5529823 47.969801,67.8342412 C47.8858385,67.1870167 47.5067352,66.6101167 47.3044619,65.986731 C47.1212711,65.4265182 47.0831063,64.8365069 47.0233149,64.2548391 C46.6938257,61.087849 45.6824595,58.0031029 45.445838,54.8289611 C45.4382346,54.5224226 45.3955857,54.2175305 45.3186221,53.9195093 C45.1914062,53.5249764 44.9369745,53.1805052 44.7512393,52.8098112 C44.4662757,52.2531742 44.3263382,51.6428999 44.1889451,51.0397772 L43.3811243,47.4937495 C42.5643983,48.6332461 42.5974745,50.1160221 42.4359103,51.4819877 C42.209466,53.389095 41.7031468,55.2640199 41.2909674,57.1472884 C41.1952098,57.552497 41.1234353,57.9623558 41.0759726,58.3749888 C40.9691112,59.4799191 41.1815617,60.5955769 41.0683396,61.6993153 C40.9411237,62.9782692 40.3673801,64.2262325 40.5060454,65.5051864 C40.582375,66.2132 40.8724272,66.8830714 41.0683396,67.5696301 C41.2642521,68.2561887 41.3609361,69.0094961 41.0619788,69.6638723 C40.0171081,69.3044371 38.8946685,69.1882674 37.7912586,69.3253608 C36.5788913,68.1632172 36.3638965,66.542176 36.2812061,64.915175 C36.1985158,63.2881741 36.3982447,61.6587893 36.1819777,60.0472836 C36.1183698,59.5705067 36.0191414,59.1056493 36.0026034,58.6300644 C35.9491727,57.1055705 36.7315503,55.6788158 37.1208309,54.1972318 C37.4711524,52.863487 37.504592,51.473933 37.2187872,50.1267495 C37.0279633,49.2363688 36.6997464,48.3722108 36.5827078,47.4699106 C36.4236879,46.2052601 36.6933856,44.931074 36.9643554,43.6819187 C37.1462741,42.8392156 37.3269206,41.9965125 37.5330104,41.1585773 C37.754366,40.258661 38.0177029,39.3396736 38.6092567,38.6030534 C39.5557428,37.4242227 41.2362646,36.9009601 42.8073807,37.0153866 C44.3784968,37.129813 45.8452958,37.7996845 47.1428978,38.6340439 C48.1655971,39.2744337 49.1078718,40.0209455 49.9518244,40.8593998 Z" id="Path" fill="#192534"></path>
                        <path d="M45.4870374,18.0738732 C45.42001,18.1779659 45.3734177,18.2931176 45.3495987,18.4135493 C45.3197207,18.6503983 45.4691106,18.8676062 45.5886225,19.0744159 C45.7417427,19.3401197 45.8594039,19.6235165 45.9387925,19.9178294 C45.9956803,20.0999868 46.0131733,20.2915147 45.9901826,20.4804903 C45.9610191,20.6224261 45.9085686,20.7589412 45.8348171,20.8848667 C45.6041591,21.314661 45.262355,21.7121052 44.7974536,21.8911862 C44.4374243,22.0193472 44.044801,22.0347075 43.6752366,21.9350899 C43.3081487,21.8346314 42.9611197,21.675286 42.6486292,21.4637026 C42.3852481,21.3023374 42.1483733,21.1037196 41.9458991,20.8744684 C41.7525813,20.6237849 41.5897693,20.3524129 41.4606807,20.0657157 C41.2120959,19.5631336 40.9599257,19.0258907 41.0053403,18.4747834 C41.0077104,18.4248119 41.0173667,18.3754142 41.0340231,18.3280526 C41.0728316,18.2424694 41.1270558,18.1642302 41.1941691,18.0969804 C41.7040623,17.5128562 41.9654874,16.7633435 41.9255821,16 L43.6668708,16.3824245 C44.0505041,16.4667659 44.4341374,16.5511072 44.8129902,16.6562451 C45.1237212,16.7428972 45.6017688,16.8630547 45.803744,17.1310985 C46.0057192,17.3991423 45.6244761,17.8289366 45.4870374,18.0738732 Z" id="Path" fill="#FBBEBE"></path>
                        <circle id="Oval" fill="#FBBEBE" cx="44" cy="15" r="3"></circle>
                        <path d="M44.3822832,21.1177364 C44.5082933,20.8218741 44.7805653,20.6346959 45.0292104,20.4487253 C45.2778555,20.2627548 45.5298758,20.0248573 45.5782547,19.7024278 C45.581226,19.6294952 45.598073,19.5579871 45.6277587,19.4923053 C45.7233914,19.3377323 45.9506598,19.4150188 46.0867958,19.5285333 C46.4175725,19.8050739 46.6425906,20.1975443 46.8619833,20.5803539 C47.145802,21.0458791 47.3887391,21.5386826 47.5876669,22.0524196 C47.9038174,22.9472521 47.9420705,23.9242014 47.9769483,24.8794138 C48.0084509,25.7488866 48.0388283,26.6316431 47.8419374,27.4745486 C47.7181775,28.0083083 47.5044102,28.5263692 47.4920342,29.0758277 C47.4549062,31.0719924 46.8091041,32.9800021 46.7641004,34.9761668 C46.7607237,35.5533712 46.787769,36.1303185 46.845107,36.704244 L46.9508655,38 C45.3149835,37.8993666 43.6836018,37.7451962 42.0567204,37.5374888 C42.0094666,36.9409338 41.8508288,36.3624929 41.7056921,35.7852595 C41.1113984,33.4253508 40.7304804,31.0094366 40.5682253,28.5710505 C40.4815933,27.2765021 40.3927111,25.9867841 40.2588253,24.6970661 C40.1384406,23.5244854 39.9021715,22.3446591 40.043933,21.1744936 C40.1181249,20.642613 40.274003,20.1276258 40.5052202,19.650501 C40.5783058,19.4604183 40.7039709,19.2989827 40.8652493,19.1879898 C40.9458267,19.1461963 41.0313898,19.1165318 41.1195198,19.0998349 C41.374586,19.044374 41.6334898,19.0116572 41.8935823,19.0020192 C41.9571569,18.9962724 42.0211765,19.0028167 42.0825975,19.0213408 C42.1922164,19.0799946 42.2822214,19.1736473 42.3402433,19.2894283 C42.8415246,20.0983355 43.5509536,20.7335115 44.3822832,21.1177364 Z" id="Path" fill="#F2F2F2"></path>
                        <path d="M43,21.2491156 C43.2398508,21.5686265 43.7479218,21.6443001 43.9697193,21.9698168 C44.0444382,22.1058665 44.1011617,22.2498576 44.1386465,22.3986341 C44.2740462,22.8010256 44.5474245,23.1505658 44.7137726,23.5433479 C44.9536234,24.1078973 44.960071,24.732505 44.9626501,25.3390953 C44.9862297,25.8222697 44.9463896,26.3063184 44.8440142,26.7804978 C44.766643,27.0771865 44.64027,27.3594612 44.5474245,27.6525464 C44.3897418,28.1509579 44.3311811,28.6720176 44.3746288,29.1900424 C44.3746491,29.3019472 44.4066981,29.4118236 44.4674742,29.5083521 C44.5549351,29.6048178 44.6691114,29.677105 44.7975914,29.7173555 C45.1754209,29.8723063 45.5713037,30.0308606 45.9839502,29.9948255 C46.0685952,29.9923417 46.1506166,29.9668744 46.2199325,29.9215542 C46.2677433,29.8809763 46.3070899,29.8325158 46.3359893,29.7786151 L46.5938934,29.3726201 C46.8272966,29.0014589 47.0710159,28.5858545 46.9807495,28.1618419 C46.9151942,27.9429877 46.8166385,27.7339031 46.6880284,27.5408377 C46.5232122,27.2274961 46.3827243,26.9035513 46.2676447,26.5714945 C45.8562877,25.4700227 45.4397726,24.3529357 45.3469271,23.1902043 C45.2923244,22.7477018 45.3452089,22.2994259 45.5016696,21.878528 C45.6227877,21.6194857 45.7750652,21.3740792 45.9555808,21.1470162 C45.8719925,21.0425296 45.7277321,20.9970999 45.5932255,21.0329052 C45.4635084,21.070239 45.3378669,21.1189023 45.2179751,21.1782466 C44.8388561,21.3271915 44.4184724,21.2731389 44.0354849,21.1710396 C43.8859005,21.1301999 43.6486288,20.9908643 43.4938863,21.0004736 C43.441016,21.0064795 43.0090266,21.2635296 43,21.2491156 Z" id="Path" fill="#ED695F"></path>
                        <path d="M45.1918715,21.0065359 C45.1202501,20.9437908 45.0092368,20.8862745 44.9459712,20.9594771 C44.9247208,20.9912139 44.9093143,21.0271767 44.900611,21.0653595 C44.8385391,21.248366 44.6559044,21.3385621 44.4899814,21.4091503 C44.3240584,21.4797386 44.1450049,21.5189542 44.0447349,21.3843137 C43.979788,21.2767354 43.9860695,21.1354543 44.0602528,21.0352941 C44.1336775,20.9384218 44.2221825,20.8565485 44.3216711,20.7934641 C44.8707455,20.3690506 45.244781,19.7245887 45.3625692,19 C45.5165438,19.1340153 45.6184737,19.3269012 45.6478613,19.5398693 C45.6872531,19.7477124 45.6920278,19.9620915 45.7314196,20.1699346 C45.7899105,20.4679739 45.9200227,20.7464052 45.949865,21.048366 C45.965383,21.2091503 45.949865,21.3712418 45.949865,21.5320261 C45.9552277,21.6892257 45.9719922,21.8457097 46,22 C45.7206764,21.675817 45.5237175,21.2954248 45.1918715,21.0065359 Z" id="Path" fill="#F2F2F2"></path>
                        <path d="M43.0130119,19.9835157 C42.8822119,19.8798096 42.7514119,19.7815617 42.6206119,19.6756723 C42.0466484,19.2081209 41.6132509,18.6339498 41.355776,18 C41.188352,18.1091643 41.003924,18.2532612 41,18.4366573 C41.0149145,18.5664302 41.0749239,18.6897412 41.172656,18.7914413 C41.6672786,19.4415447 41.9938328,20.1706694 42.1314199,20.9321537 C42.2751285,20.7447885 42.525471,20.6334954 42.7919599,20.6385017 C42.9986239,20.6385017 43.9259958,21.0969918 43.9927038,20.9812776 C44.0908038,20.8000649 43.1699718,20.1068714 43.0130119,19.9835157 Z" id="Path" fill="#F2F2F2"></path>
                        <path d="M45.8198063,18.9783936 C46.9640159,20.1053139 48.3647097,20.9443054 49.9043743,21.4249794 C50.0574365,21.4580014 50.1993978,21.5292631 50.3167235,21.6319704 C50.4043678,21.7402753 50.4633171,21.8685021 50.4882315,22.0050356 C50.7850256,23.1531138 50.8847679,24.3409053 50.9832938,25.5214762 C51.0090921,25.7167276 51.0049915,25.9147112 50.9711301,26.1087531 C50.8993643,26.4240533 50.6731196,26.6791818 50.4505241,26.9162587 C49.7523281,27.656372 48.9556063,28.4301815 48.8376184,29.4362541 C48.8286179,29.6302062 48.8054464,29.8232599 48.7682854,30.0139035 C48.7074669,30.2377426 48.5724499,30.4351062 48.4897368,30.6529281 C48.0834695,31.7251898 49.0018283,33.0236974 48.4422984,34.0225495 C48.7451856,34.5982848 48.952975,35.2182752 49.0577813,35.8589931 C49.076554,36.1018905 49.1327508,36.3405208 49.2244239,36.5666136 C49.3910665,36.9107963 49.7340826,37.1298217 50.0041166,37.4090189 C50.8275985,38.2442036 50.9285572,39.5222529 50.977212,40.6883825 C51.0076212,41.3454587 50.9978902,42.1000132 50.4906643,42.5308433 C50.1975193,42.7823615 49.7973338,42.8641952 49.4141775,42.9267738 C48.9045187,43.0110144 48.3498544,43.0711862 47.8985814,42.8220749 C47.5750272,42.6439663 47.3548643,42.3322764 47.1444324,42.0314173 C46.7454633,41.4573783 46.3452778,40.8845426 45.966987,40.2960623 C45.3685333,39.368213 44.804138,38.3079857 44.9768624,37.2200794 C44.9282077,38.3332579 44.6910156,39.4548604 44.138784,40.42483 C43.5865524,41.3947996 42.6973864,42.2047121 41.6184669,42.5248262 C40.5395474,42.8449402 39.2781725,42.6186942 38.4741524,41.8388675 C38.2116795,41.5715213 37.9862983,41.2708358 37.8039329,40.9447144 C37.3462614,40.1692849 37.0122892,39.3286185 36.8138084,38.4523981 C36.7615045,38.2249486 36.7225807,37.9710236 36.8381357,37.7676429 C36.8928724,37.671368 36.9768018,37.5955515 37.0339712,37.5004801 C37.2261575,37.1767557 37.0412694,36.7687908 36.8551649,36.4390493 C36.5717509,36.4655249 36.3686172,36.1357834 36.394161,35.8541793 C36.4197047,35.5725753 36.5899964,35.3282777 36.710417,35.0719458 C37.0631641,34.3161879 36.9853164,33.436476 36.8150247,32.6217497 C36.644733,31.8070234 36.3905119,30.9971109 36.4099738,30.1655365 C36.430652,29.2858246 35.7908418,28.4939636 35.3030777,27.7586641 C35.030611,27.344682 34.7131387,26.9595824 34.4759466,26.525142 C33.9814231,25.6109087 33.8670806,24.5418182 34.1572579,23.545434 C34.3275873,23.0338008 34.5509668,22.540977 34.8238283,22.0748349 L35.2252301,21.3299079 C35.3768017,20.9689245 35.6929368,20.7008328 36.0766886,20.6078462 L38.8536596,19.5247537 C39.2087426,19.4047582 39.54587,19.2379868 39.8559479,19.0289379 C40.1953149,18.7762163 40.4483197,18.4272198 40.7718739,18.1576501 C40.8671156,18.0586628 40.9986624,18.0018314 41.1367847,18 C41.3970877,18.0228653 41.4895318,18.3477931 41.5162919,18.6017181 C41.5771104,19.16974 42.0028396,19.6511145 42.1475875,20.2034917 C42.9309293,23.2542024 44.5888406,26.0678362 45.0437627,29.1823291 C45.5546378,27.968062 46.0655129,26.751388 46.7199196,25.6081236 C46.8231507,25.4439914 46.9099252,25.2702724 46.9790062,25.0894426 C47.0575589,24.8286079 47.0868355,24.5556806 47.0653684,24.2843438 C47.0325265,23.5009068 46.8220946,22.7355214 46.6140954,21.9785601 C46.3440615,20.9484187 46.1007876,19.9989075 45.8198063,18.9783936 Z" id="Path" fill="#3F3D56"></path>
                        <path d="M50.6773744,28.8190521 C50.7388827,29.3366665 50.7989931,29.8554959 50.9094286,30.3670349 C51.038037,30.9587678 51.2337453,31.537135 51.4280558,32.1155022 C51.5229497,32.4406115 51.6589076,32.7556049 51.8334518,33.0547413 C51.8967303,33.1415803 51.9469956,33.2350854 51.9830289,33.3329894 C52.0515268,33.5760009 51.8949601,33.8190123 51.8278601,34.0620237 C51.62656,34.791058 52.2304602,35.6015011 51.8502268,36.2734277 C51.7355976,36.4775573 51.5356954,36.6464503 51.4602079,36.8651605 C51.3721391,37.1166774 51.4602079,37.385205 51.5063392,37.6452272 C51.6251621,38.3742615 51.3385891,39.1154464 51.0562099,39.8165343 L50.5753264,41 C50.1363805,40.2904066 49.6932407,39.5735229 49.0865447,38.9647793 C48.8698676,38.746069 48.6336196,38.5431545 48.4337175,38.3122936 C48.1356509,37.9495048 47.900177,37.550804 47.7347589,37.1288279 C47.3079867,36.1262128 47.064136,35.0717777 47.0120358,34.003701 C46.9773436,33.7000506 47.0178595,33.3934636 47.1308588,33.1045587 C47.2233761,32.9374584 47.326997,32.7751767 47.4411964,32.6185358 C47.8158381,32.0316632 47.8927236,31.3366505 47.885734,30.665939 C47.8787444,29.9952275 47.7962673,29.3220858 47.885734,28.6550194 C47.9587348,28.0980588 48.1482373,27.5573852 48.4449008,27.0596494 C48.6198936,26.7373357 48.8799728,26.4554911 49.2039698,26.2370557 C49.4457646,26.079712 49.7407005,25.9963964 50.04272,26 C50.4998389,26.0232057 50.3949951,26.3646367 50.4341368,26.6939172 L50.6773744,28.8190521 Z" id="Path" fill="#3F3D56"></path>
                        <path d="M33.3766418,27.0729895 C33.1187585,27.7777977 32.8861579,28.4888709 32.6788399,29.2062091 C32.4765785,29.9110173 32.2958073,30.6197411 32.1365265,31.3323805 C32.054711,31.6457193 32.0089454,31.9662475 32,32.2885704 C32.0161738,32.6638356 32.0854539,33.0354881 32.2060538,33.3939446 C33.0201561,36.1203777 34.5042493,38.6353684 36.1754343,41 C36.6529748,40.4465758 37.2201766,39.9654803 37.8567324,39.573938 C37.9088217,39.5452731 37.952298,39.5048733 37.9831458,39.45647 C38.015597,39.3639168 38.0006945,39.2626537 37.9426935,39.1815948 C37.4812846,38.3029339 36.7506152,37.5288195 36.5205429,36.5738044 C36.4244687,36.1767624 36.4206763,35.7632749 36.3119608,35.3685823 C36.1716419,34.8575963 35.8581367,34.3900735 35.7860811,33.8661661 C35.7089689,33.2952714 35.9124945,32.6726908 35.6242719,32.1664036 C36.2120942,31.9537864 36.5521462,31.3911146 36.8011806,30.8519363 C37.0672745,30.3003281 37.257549,29.7197751 37.3675126,29.1239814 C37.5406108,27.9817614 37.3000216,26.8184825 36.6836161,25.8172562 C36.3825447,25.3178142 35.9961661,24.867133 35.5395749,24.4828193 C35.389143,24.3571285 35.0339214,23.9965016 34.8152262,24 C34.5232113,24.005899 34.4296654,24.4452295 34.3462325,24.6425758 C34.0087088,25.4484065 33.6749774,26.255412 33.3766418,27.0729895 Z" id="Path" fill="#3F3D56"></path>
                        <path d="M38.9211294,40.0782156 C38.9625052,40.1032774 39.0093977,40.1374526 38.9983642,40.1784628 C38.9873306,40.219473 38.9473341,40.2297256 38.9114751,40.2468132 C38.725025,40.3560663 38.5858267,40.5117599 38.5142677,40.6910905 C38.2850777,41.1177407 38.0852365,41.5547394 37.9156982,42 C37.6070628,41.6180677 37.2440371,41.2681167 36.8344114,40.9576569 C36.5199555,40.7184307 36.1682615,40.4917353 36,40.1682102 C36,40.1590969 36.7226968,39.718237 36.788898,39.6703918 C36.9916393,39.5211601 37.2467899,39.1076404 37.4564271,39.0165066 C37.6936482,38.9139811 37.9198358,39.316109 38.10051,39.4778716 C38.3490598,39.7001456 38.6239757,39.9012669 38.9211294,40.0782156 Z" id="Path" fill="#FBBEBE"></path>
                        <path d="M47.6129444,13.3961602 C47.6045088,13.2536208 47.5840223,13.0958483 47.4635136,13.0033609 C47.3577407,12.9372918 47.2303294,12.9054638 47.1019874,12.9130497 C46.3994215,12.8923761 45.6727538,12.9990086 45.0099557,12.7857436 C44.5737141,12.6453804 44.2013421,12.3755349 43.7759463,12.2079695 C43.3505504,12.0404042 42.805851,11.9957926 42.4624011,12.2776071 C42.2021022,12.4952244 42.131002,12.829267 42.0406205,13.1371956 C41.8416304,13.816822 41.4873799,14.4513466 41.0006301,15 C40.6740514,14.9086007 40.4402645,14.6452837 40.2896285,14.3689097 C39.7774664,13.4266266 40.0293297,12.301545 40.3932661,11.3026814 C40.5137748,10.9675507 40.6475395,10.6356842 40.7813042,10.3049059 L41.0753455,9.57371161 C41.4612785,9.53948946 41.8198233,9.37839693 42.0827985,9.12106754 L42.2093327,9.39852965 C42.536128,9.38791526 42.8515084,9.28729989 43.1131482,9.11018668 C43.2143756,9.28210438 43.4746744,9.32780402 43.6855647,9.2723116 C43.896455,9.21681917 44.0784232,9.11018668 44.2881084,9.05469425 C44.848474,8.89148125 45.4461974,9.14282928 46.03428,9.17111953 C46.2831386,9.16564954 46.5321431,9.17218737 46.7802291,9.19070509 C47.4743594,9.29189716 47.96483,9.88164015 48.1769253,10.4866164 C48.3179206,10.8892084 48.434814,11.3842879 48.8746709,11.5268272 C48.8843116,11.6791594 48.5854499,11.7085377 48.5601431,11.8532533 C48.5571654,11.901501 48.5697218,11.9494954 48.5962957,11.9914403 L49,12.7737746 C48.8070164,12.8175178 48.6039818,12.8084275 48.4167377,12.7476605 C48.2347695,13.1339313 47.6310208,13.6910317 47.6129444,13.3961602 Z" id="Path" fill="#192534"></path>
                        <path d="M68.9950946,15.6256706 C69.2329957,16.2588809 69.4202694,16.9042584 69.5557113,17.5576532 C69.6566223,18.0472889 69.715487,18.5912003 69.3749124,19 C70.67274,17.3913618 72.0280308,15.7342219 74,14.6960555 C73.1878921,13.9705321 72.7879575,12.994966 72.8997898,12.0122973 C72.9110021,11.9152939 71.2810091,12.4222517 71.1562719,12.4799918 C70.5844429,12.7421317 70.0602663,13.0677857 69.5024527,13.3484024 C69.2137351,13.4927525 68.0112123,13.8345737 68,14.0412832 C68,14.1740853 68.4779257,14.5805754 68.5676244,14.7203063 C68.7436161,15.0106158 68.8867131,15.3136892 68.9950946,15.6256706 L68.9950946,15.6256706 Z" id="Path" fill="#FBBEBE"></path>
                        <path d="M73.9734236,80.009164 C73.4144752,79.5760034 72.6845995,79.5151655 72.0727214,79.8507331 C71.5291493,80.1596734 71.1631682,80.7445474 70.6687936,81.1406246 C69.8192373,81.8192368 68.697295,81.8733674 67.7025462,82.2403989 C67.4385598,82.338098 67.1577742,82.4833263 67.04618,82.7685019 C66.9705851,83.0107315 66.9883614,83.2764452 67.0953774,83.5038852 C67.2616675,83.9116981 67.5530684,84.2421331 67.9185351,84.4373071 C68.3649121,84.6723129 68.8784857,84.682875 69.3728603,84.6894763 L73.6686393,84.7449271 C74.9885714,84.7620904 76.316903,84.7792538 77.6284356,84.960129 C77.9344198,85.0023773 78.2656028,85.0485863 78.5355889,84.8835541 C78.9747663,84.6195026 79.0251637,83.9514524 78.9915654,83.4009051 C78.9031252,82.0060091 78.6198138,80.634444 78.1516087,79.3345125 C78.1000113,79.1906045 78.0316148,79.0268926 77.8864223,79.0004874 C77.783393,78.9953513 77.6820933,79.0309426 77.600837,79.100827 C76.3888993,79.8929814 74.8541783,80.3405486 73.5654446,79.7068251" id="Path" fill="#FFFFFF"></path>
                        <path d="M75.945163,52.2877246 C75.3898427,55.1636806 75.7521892,58.1188708 76.3769245,60.9824464 C76.4919459,61.5526122 76.6435193,62.1164301 76.8308989,62.6711266 C77.0544153,63.3025246 77.3556766,63.9091618 77.56531,64.5442739 C78.0984175,66.1537198 78.0234493,67.8745889 77.9443161,69.5546027 L77.5805813,77.1994706 C77.5500387,77.8407729 77.5222727,78.4969316 77.7388476,79.1085211 C77.8263106,79.3561281 77.9332097,79.6656369 77.7124699,79.8327717 C77.6261009,79.8880731 77.5252178,79.9226089 77.4195384,79.9330526 C76.4261458,80.0962847 75.4000755,79.959033 74.5041068,79.5430714 L74.4055374,71.8202073 C74.3749948,69.4394655 74.3430639,67.0488193 73.9321269,64.6977903 C73.6058762,62.828357 73.0394495,60.9836845 73.0019653,59.0919665 C72.9630929,57.1111101 73.5073068,55.1562524 74.0626271,53.2360596 C74.182021,52.8250319 74.6179475,52.5241893 74.9761291,52.2456314 C75.1011303,52.1357099 75.2532859,52.0534498 75.4203853,52.0054526 C75.5869814,51.9645974 75.8424287,52.162683 75.945163,52.2877246 Z" id="Path" fill="#3F3D56"></path>
                        <path d="M75.945163,52.2877246 C75.3898427,55.1636806 75.7521892,58.1188708 76.3769245,60.9824464 C76.4919459,61.5526122 76.6435193,62.1164301 76.8308989,62.6711266 C77.0544153,63.3025246 77.3556766,63.9091618 77.56531,64.5442739 C78.0984175,66.1537198 78.0234493,67.8745889 77.9443161,69.5546027 L77.5805813,77.1994706 C77.5500387,77.8407729 77.5222727,78.4969316 77.7388476,79.1085211 C77.8263106,79.3561281 77.9332097,79.6656369 77.7124699,79.8327717 C77.6261009,79.8880731 77.5252178,79.9226089 77.4195384,79.9330526 C76.4261458,80.0962847 75.4000755,79.959033 74.5041068,79.5430714 L74.4055374,71.8202073 C74.3749948,69.4394655 74.3430639,67.0488193 73.9321269,64.6977903 C73.6058762,62.828357 73.0394495,60.9836845 73.0019653,59.0919665 C72.9630929,57.1111101 73.5073068,55.1562524 74.0626271,53.2360596 C74.182021,52.8250319 74.6179475,52.5241893 74.9761291,52.2456314 C75.1011303,52.1357099 75.2532859,52.0534498 75.4203853,52.0054526 C75.5869814,51.9645974 75.8424287,52.162683 75.945163,52.2877246 Z" id="Path" fill="#000000" opacity="0.1"></path>
                        <path d="M67.0491147,44.1606799 C66.8669133,44.8847068 67.2534757,45.6348891 67.2103875,46.3791269 C67.1857657,46.8297118 67.0023332,47.2791079 67.0872785,47.7213706 C67.1722237,48.1636334 67.4996938,48.4965193 67.6745087,48.9019269 C67.8019976,49.2404985 67.8694227,49.5974154 67.8739453,49.9576509 C67.9244201,50.8469319 67.8837941,51.7409685 67.8493235,52.6266829 C67.7914623,54.1127808 67.7483741,55.607201 67.951504,57.0802213 C68.1283866,58.3563707 68.48759,59.6026828 69.0188596,60.7835775 C69.1798866,61.1048153 69.3128949,61.4384609 69.4165018,61.7810465 C69.4845261,62.1002551 69.5297725,62.423598 69.5519218,62.7487935 C69.6689339,63.8064203 69.9628807,64.8387038 70.4223028,65.8053998 C70.7362309,66.4676051 71.2840662,66.9942782 71.45765,67.6969053 C71.6226161,68.3698105 71.5118179,69.0795709 71.6312337,69.7607982 C71.7186412,70.2660715 71.9316198,70.7440006 72.0498045,71.2433296 C72.2036908,71.8888905 72.1999976,72.5582291 72.2775563,73.2168677 C72.4991526,75.1190731 73.3941554,77.0212785 72.8598621,78.8664178 C72.7527572,79.2373478 72.58656,79.6142223 72.6616565,79.9922856 C72.6985892,80.1777507 72.7921521,80.3608379 72.750295,80.5451141 C72.7158245,80.702046 72.5902533,80.8233116 72.5262366,80.9719214 C72.4031275,81.250119 72.5336231,81.5806272 72.7527572,81.7958141 C72.9865042,81.996411 73.2582343,82.1514365 73.5529661,82.2523434 C74.4602798,82.6268401 75.3996019,83.0072812 76.3844744,82.9989591 C76.5040265,83.005111 76.6233945,82.9839297 76.732873,82.9371374 C76.91015,82.8479715 76.9975575,82.6541843 77.072654,82.4758526 L77.5774011,81.2703299 C77.6389556,81.1240979 77.7005102,80.9528994 77.6155649,80.8173672 C77.5564093,80.7430458 77.4848475,80.6787592 77.4038173,80.6271467 C76.9963264,80.2954496 77.0886582,79.676044 77.1969941,79.1779039 C77.4737315,77.898479 77.6270428,76.5970321 77.6549598,75.2902716 C77.7091278,72.6842502 77.2647041,70.0936842 76.8215115,67.5221402 C76.6676252,66.6292925 76.5125078,65.7305005 76.2059662,64.874508 C75.8994247,64.0185156 75.4476145,63.1946229 75.5214799,62.3053418 C75.6002697,61.3447281 75.3417407,60.3377481 75.5214799,59.390212 C75.7012191,58.4426759 75.985601,57.5153508 76.1690335,56.5690036 C76.406634,55.3408922 76.4657263,54.0890033 76.5383607,52.8430587 C76.5691379,52.3342188 76.6085328,51.8087345 76.854751,51.3569607 C76.9987886,51.0930297 77.2080739,50.8671428 77.3693468,50.611534 C77.7854554,49.946951 77.8519343,49.1230582 78.2495766,48.4477753 C78.4379334,48.127967 78.6976935,47.8462029 78.8355757,47.5038059 C78.9323897,47.233727 78.9831151,46.9502501 78.9857687,46.6644577 C79.0247878,45.9469552 78.9835125,45.2274813 78.8626597,44.5185322 C76.766967,43.4886986 74.4428162,42.967984 72.0916616,43.0015234 C71.1917344,43.01579 70.2819585,43.103767 69.4374303,43.4045532 C68.6322971,43.6934506 67.8985671,44.0988582 67.0491147,44.1606799 Z" id="Path" fill="#3F3D56"></path>
                        <path d="M72.2639423,81.4070636 C71.9027121,81.8466398 71.9272856,82.4747775 71.6962948,82.9924206 C71.416157,83.6205583 70.7919904,84.0229027 70.1997694,84.3892162 L66.5137462,86.6711695 C66.3122436,86.7912723 66.0959969,86.9389988 66.0222765,87.16239 C65.9872484,87.3049887 65.9936312,87.4543137 66.0407066,87.5935591 C66.2194911,88.2059601 66.7046401,88.687433 67.3283573,88.8714529 C67.6545715,88.9474144 67.9896196,88.9809326 68.3248123,88.9711382 L69.982294,88.9927567 C70.4872266,89.0120538 70.9929299,88.9927787 71.4947922,88.9351074 C71.9543164,88.8702519 72.4015539,88.7417419 72.8586208,88.660072 C73.6904333,88.5123455 74.5455907,88.5255568 75.3786319,88.3826345 C75.888736,88.2846025 76.3925344,88.1574765 76.8874441,88.0019086 C77.4894945,87.8253575 78.102603,87.6416002 78.6186463,87.292101 C78.7607116,87.2075886 78.8759829,87.0861796 78.951617,86.9414008 C79.0388529,86.7432312 78.9909346,86.5162369 78.9417876,86.306057 L78.1505213,82.9071476 C78.1058703,82.624105 78.0003419,82.3535307 77.8408954,82.1132681 C77.6651949,81.8850727 77.3494256,81.7337432 77.0754312,81.8310265 C76.9623694,81.8813688 76.8555947,81.9442339 76.7572046,82.0183869 C76.351742,82.2790099 75.8320128,82.322247 75.3528298,82.240577 C75.0432038,82.1865308 74.6340552,82.1036598 74.3846343,81.9030882 C74.1954185,81.7505576 74.1388995,81.5139551 73.9779431,81.341007 C73.7497338,81.1119102 73.4327601,80.9882794 73.1058917,81.0008767 C72.7790234,81.013474 72.4729912,81.1611151 72.2639423,81.4070636 Z" id="Path" fill="#FFFFFF"></path>
                        <circle id="Oval" fill="#FBBEBE" cx="69.5" cy="11.5" r="4.5"></circle>
                        <path d="M66.1264321,11.8375891 C66.5149418,11.6120335 66.5149418,10.9621079 66.9124345,10.7458536 C67.3099272,10.5295993 67.7613172,10.9051377 68.0162065,11.2841641 C68.387727,11.8392562 68.6456577,12.467173 68.7741375,13.1293016 C68.810069,13.3176521 68.8437548,13.5234425 68.9807438,13.6548228 C69.1177328,13.7862031 69.2973905,13.8024803 69.4725568,13.8210829 C69.9853298,13.87379 70.4988514,13.9218465 71.0131216,13.9652524 C71.5857805,14.0129214 72.1898795,14.0512891 72.709764,13.796667 C72.9149366,13.7016842 73.0911922,13.5505368 73.2195428,13.3595078 C73.322433,13.1760795 73.3959945,12.9766275 73.4373777,12.7688778 C73.7057414,11.7120221 73.9763508,10.6423771 73.998808,9.54947901 C74.0077909,9.09836787 73.9696137,8.63097954 73.7596387,8.23567597 C73.6372469,8.00314446 73.4575892,7.80084205 73.4070605,7.54505738 C73.3565318,7.28927272 73.5193466,6.96372861 73.7753588,6.99163239 C73.5439451,7.00148631 73.3134399,6.95613809 73.1016424,6.85908943 C72.8984046,6.74282367 72.7479413,6.4928523 72.8198044,6.26497142 C72.2493912,6.34054416 71.8339327,5.75689007 71.3892799,5.37902636 C71.3169775,5.30480266 71.2193613,5.26303573 71.1175476,5.26276061 C71.0394234,5.28293886 70.9639979,5.31300691 70.8929755,5.35228524 C70.6684034,5.43367127 70.4337255,5.27903781 70.2035391,5.21160367 C69.5859657,5.03255441 68.8010861,5.46506302 68.342959,5 C68.3867505,5.29647768 68.0352952,5.49529212 67.7455971,5.48947883 C67.4558991,5.48366554 67.1572181,5.37321307 66.8832401,5.47320162 C66.9635918,5.62535395 66.9741458,5.80670571 66.9120208,5.96774778 C66.8498958,6.12878986 66.7215794,6.25270504 66.562102,6.30566443 L66.6979681,6.61260603 C66.4124115,6.67171502 66.1839441,6.89341005 66.1084663,7.18463354 C65.9591258,7.79502876 65.9961802,8.66237129 66.0321118,9.29020637 C66.0500775,9.56575621 66.3094583,11.7341125 66.1264321,11.8375891 Z" id="Path" fill="#192534"></path>
                        <path d="M69.6932764,17.282807 C67.4415089,19.7153315 66.8683318,23.1394584 66.3882029,26.363358 L65.6810362,31.123526 C65.497421,32.3582617 65.3088433,33.5929973 65.1488003,34.8313084 C65.0371424,35.6786994 64.9329284,36.5392005 65.0545114,37.3853996 C65.1500409,38.0528243 65.3820412,38.6964124 65.5755816,39.3388086 C66.0791772,41.0237374 66.3298339,42.769096 66.3199675,44.5220763 C66.4700853,44.0977849 66.9899148,43.9261614 67.4464715,43.830815 C71.2773166,43.0323449 75.2740942,43.4423789 78.8430201,45 C79.4695449,43.3135609 79.3516838,41.4686084 79.5266145,39.6856311 C79.7747431,37.1434582 80.6295463,34.6799461 80.8826375,32.1425405 C80.9756858,31.1974195 80.9868516,30.2475312 80.9967767,29.2976428 C81.0042206,28.6004224 81.0116644,27.896051 80.860306,27.2131326 C80.6915785,26.4575125 80.3355139,25.7531411 79.9670428,25.067839 C78.9484647,23.1628404 77.8167873,21.3156383 76.5776056,19.5353652 C75.9539756,18.6391093 75.303465,17.7607307 74.6260738,16.9002296 C74.2828292,16.4640199 73.9325542,16.0325776 73.575249,15.6059025 C73.2291095,15.1923376 73.0789917,14.8335968 72.5293868,15.0814974 C71.4909684,15.5486947 70.4488281,16.4664036 69.6932764,17.282807 Z" id="Path" fill="#ED695F"></path>
                        <path d="M70.9504554,37.8035007 C70.4852322,37.8210665 70.0194034,37.8056739 69.5561753,37.7574285 C69.2125961,37.722326 68.861662,37.6696721 68.5264884,37.7574285 C68.3807489,37.7957446 68.2443577,37.8656342 68.1261713,37.9625592 C68.0366827,38.0457403 68.0028534,38.1763434 68.0399902,38.2952749 C68.077127,38.4142063 68.1781837,38.4989008 68.2974356,38.5110368 L68.6567753,38.5439455 C68.8847774,38.5647876 69.1222358,38.5889207 69.2998043,38.7633366 C69.3727231,38.8318713 69.4190716,38.9259174 69.4300912,39.0277028 C69.4521559,39.2832934 69.2399143,39.4226067 69.0497374,39.5290114 C68.7793726,39.6615506 68.5293766,39.8353051 68.3079426,40.0445804 C68.1345449,40.2194724 68.0255712,40.4524506 68.0000872,40.7027536 C67.9984441,40.7481635 68.0201208,40.7910419 68.0569577,40.8152482 C68.0937947,40.8394545 68.1402003,40.8413144 68.1787064,40.8201278 C68.5989867,40.6007367 68.8732197,39.9502422 69.3344774,40.0588408 C68.9149184,40.1975423 68.5555647,40.4861072 68.3195003,40.8738786 C68.1996072,41.0645011 68.2210722,41.3161884 68.3713377,41.4816973 C68.5216032,41.6472063 68.7611845,41.6830468 68.9499208,41.5682513 C69.0182115,41.5265083 69.0841628,41.4807273 69.1474526,41.4311319 C69.4599646,41.1670152 69.7398426,40.8633937 69.9806585,40.5272407 C69.6444342,41.2676855 69.3040071,42.1342802 69.690665,42.8703373 C69.7300444,42.9530594 69.8124085,43.0037934 69.9008052,42.999778 C70.0226865,42.9866145 70.0584103,42.8670464 70.0783737,42.7617387 C70.1414157,42.4227795 70.1571762,42.0651721 70.3168828,41.7635093 C70.6867295,41.0636519 71.5987379,40.9956406 72.2932512,40.6544875 C73.1264571,40.250808 73.6969877,39.3820194 73.9270912,38.4539952 C74.0076042,38.1833516 74.0216946,37.8959263 73.9680685,37.6181152 C73.8136155,36.9939476 73.0760234,36.8502465 72.6021573,37.1519092 C72.0211197,37.5369405 71.6838447,37.7793676 70.9504554,37.8035007 Z" id="Path" fill="#FBBEBE"></path>
                        <path d="M70.6553114,24.7131705 C71.4979545,25.9938789 72.9605422,26.7153881 74.2148766,27.6146089 C74.5209056,27.8107642 74.7877505,28.06054 75.002146,28.3515197 C75.3187391,28.8325258 75.3632788,29.4438538 75.2982749,30.0101615 C75.2164181,30.757735 74.9720516,31.4768747 74.7300927,32.1900907 L74.2040426,33.7361817 C73.8705967,34.7171499 73.5263168,35.7182587 72.8919269,36.5428406 C72.7294172,36.7525403 72.5404244,36.9764569 72.547647,37.2394701 C72.5616673,37.3914142 72.6146874,37.5373603 72.7017304,37.6636085 C73.1119409,38.3223583 73.7760894,38.7891888 74.5423036,38.9573491 C74.7694097,39.014217 75.0073687,39.014217 75.2344748,38.9573491 C75.5594943,38.8625696 75.8038608,38.6019258 76.0301706,38.3554991 C77.1135689,37.1790482 78.1969672,35.9860108 78.9794215,34.6057839 C79.7438192,33.2587299 80.201254,31.762398 80.6225755,30.2802832 C80.7960829,29.7346636 80.9169943,29.1741745 80.9837083,28.6062397 C81.0727877,27.53997 80.7886966,26.4737003 80.3240391,25.5105033 C79.8593816,24.5473064 79.2201767,23.6753347 78.5617113,22.8282426 C77.9402571,21.9961938 77.2497299,21.2163265 76.4972357,20.4966662 C75.1875275,19.2917814 73.5853018,18.5833045 71.8326042,19.2669018 C70.5951226,19.7502774 70.1316689,20.7584947 70.0209215,22.0498658 C69.9271621,22.9822615 70.1502737,23.9189318 70.6553114,24.7131705 Z" id="Path" fill="#000000" opacity="0.1"></path>
                        <path d="M70.660279,24.704575 C71.5028114,25.9861602 72.9664106,26.7081634 74.2193766,27.6079998 C74.524358,27.8062081 74.7899211,28.0577407 75.0029317,28.3501574 C75.3194832,28.8314928 75.3640171,29.4420537 75.2990217,30.0099347 C75.2159721,30.75802 74.9728413,31.4776521 74.7297105,32.1913563 L74.2037296,33.7325781 C73.8703275,34.7142178 73.5260928,35.7148265 72.8917863,36.5411585 C72.7305015,36.7510017 72.5415335,36.9738861 72.5487552,37.2382649 C72.5620203,37.3901095 72.6151088,37.5359546 72.7028183,37.6615081 C73.1123548,38.3209937 73.7760138,38.7885943 74.5419462,38.95732 C74.7694299,39.0142267 75.0077462,39.0142267 75.23523,38.95732 C75.5602067,38.8636611 75.8033375,38.6016534 76.0308213,38.3562435 C77.1140772,37.1778016 78.1973332,35.985133 78.9796847,34.6039612 C79.7439819,33.2559849 80.2013567,31.7586287 80.6226229,30.2743135 C80.7965773,29.728846 80.9174831,29.1683223 80.9837082,28.6003095 C81.0727759,27.5333098 80.7887221,26.4663101 80.3253293,25.5012681 C79.8619365,24.5362262 79.2216118,23.6648431 78.563233,22.8171711 C77.9397157,21.9889014 77.2476812,21.2128761 76.4942141,20.4970395 C75.1858816,19.2925154 73.5838665,18.5823678 71.8313991,19.2676187 C70.5928764,19.7513253 70.1306872,20.7590472 70.0187508,22.052488 C69.9304035,22.9819719 70.1559047,23.9141969 70.660279,24.704575 L70.660279,24.704575 Z" id="Path" fill="#ED695F"></path>
                        <path d="M97,67.5059382 C97.0009826,67.8156331 96.9652524,68.1245548 96.8933846,68.4275534 C96.8800602,68.4845606 96.8654034,68.5463183 96.8507466,68.5950119 C96.4723348,69.9477435 95.4050537,70.9370546 94.1312449,71 C94.088607,71 94.045969,71 93.9980013,71 C92.6509086,71 91.5116759,69.9643705 91.135929,68.5380048 C91.1252695,68.5 91.1159425,68.4619952 91.1066154,68.4192399 C91.0347476,68.1162412 90.9990174,67.8073195 91,67.4976247 C91,65.5653207 92.3417835,64 93.9980013,64 C95.6542192,64 97,65.5771971 97,67.5059382 Z" id="Path" fill="#3F3D56"></path>
                        <path d="M97,66.7190813 C97.0009834,67.0481613 96.9652215,67.3764198 96.8932898,67.6983846 C96.8799536,67.7589601 96.8652838,67.8245835 96.8506139,67.8763251 C96.8052708,67.8763251 96.7612614,67.8763251 96.7172519,67.8763251 C96.3869971,67.8594971 96.0587344,67.8172918 95.7357072,67.7501262 C95.4495006,67.8338359 95.1570619,67.8971128 94.8608521,67.9394245 C94.6337413,67.9717771 94.4048853,67.9920009 94.1753711,68 L93.9433211,68 C93.6685743,68 93.3941305,67.9827407 93.1218109,67.9482584 C92.6814531,67.8926083 92.2489524,67.7910315 91.8321998,67.6453811 C91.6040488,67.7172575 91.3715899,67.7762541 91.1360499,67.8220595 C91.1253809,67.7816759 91.1160456,67.7412922 91.1067102,67.6958606 C91.0347785,67.3738959 90.9990166,67.0456373 91,66.7165573 C91,64.6633014 92.3429765,63 94.0006668,63 C95.6583572,63 97,64.6696113 97,66.7190813 Z" id="Path" fill="#000000" opacity="0.1"></path>
                        <path d="M102,60.2037693 C102.001031,59.3177599 101.806802,58.4439561 101.433009,57.6532793 L98.3716204,58.6717428 L101.059302,56.9813162 C100.146074,55.5708502 98.6839171,54.67966 97.0838936,54.5582888 C96.9581688,54.3542379 96.8201975,54.1591279 96.6708492,53.9741882 L92.2742977,55.4381521 L95.8806269,53.1698124 C94.4796168,52.0197444 92.6344897,51.6931777 90.9617939,52.2992345 C89.2890981,52.9052914 88.0094033,54.3640541 87.5503188,56.1880779 L91.3163123,60.824995 L87.2309904,57.6644168 C85.0920889,59.2870275 84.3867014,62.3403069 85.5728446,64.8417232 C86.7589878,67.3431396 89.4789128,68.5382487 91.9665391,67.6510517 C93.0552514,68.0791096 94.2450247,68.1143139 95.3541977,67.7512893 C96.920401,68.1199756 98.5584428,67.7098375 99.8089109,66.6359039 C101.059379,65.5619703 101.78761,63.9398938 101.789361,62.2246088 C101.789361,62.1008587 101.789361,61.9771086 101.777791,61.8533585 C101.927714,61.3182744 102.002576,60.7623578 102,60.2037693 L102,60.2037693 Z" id="Path" fill="#ED695F"></path>
                        <path d="M102,61.2924154 C100.375267,60.9665562 98.7091753,60.9440716 97.0771166,61.2259791 C95.2295819,61.5495487 93.3413527,62.2606638 91.5345126,61.741476 C90.4741277,61.4363609 89.5579179,60.730167 88.5219498,60.3377004 C87.5224144,59.9687082 86.445696,59.9005619 85.4117199,60.1408519 C84.6070151,62.1778943 85.0018542,64.5246304 86.4215223,66.1426379 C87.8411904,67.7606454 90.0236153,68.3512383 92.0030818,67.6530815 C93.0971724,68.0786495 94.2928232,68.1136489 95.4074754,67.752736 C96.9814158,68.1192778 98.6275495,67.7115253 99.884195,66.6438385 C101.14084,65.5761518 101.872669,63.9635106 101.874428,62.2582032 C101.874428,62.1351729 101.874428,62.0121426 101.862801,61.8891123 C101.918888,61.6930399 101.964691,61.4938371 102,61.2924154 Z" id="Path" fill="#000000" opacity="0.1"></path>
                    </g>
                </g>
            </g>
        </g>
    </g>
</svg>